<svg viewBox="0 0 131 15" fill="none" xmlns="http://www.w3.org/2000/svg">
  <path
    d="M11.1804 7.80539H13.6565V12.7334C12.2881 14.2374 10.3333 14.9734 7.79199 14.9734C5.6091 14.9734 3.81717 14.2694 2.35105 12.8934C1.63848 12.2086 1.0792 11.3853 0.708946 10.4761C0.338689 9.56698 0.165603 8.59197 0.200744 7.61339C0.200744 5.46939 0.917512 3.70939 2.41621 2.30139C3.88233 0.861391 5.67426 0.15739 7.75941 0.15739C9.87714 0.15739 11.6039 0.765391 12.9723 1.98139L11.6691 3.80539C11.1667 3.3617 10.5798 3.02014 9.94235 2.80044C9.30486 2.58075 8.62937 2.48726 7.95489 2.52539C6.48877 2.52539 5.25071 3.00539 4.24072 3.93339C3.2633 4.89339 2.74202 6.10939 2.74202 7.61339C2.71061 8.27049 2.81706 8.92692 3.05475 9.54192C3.29244 10.1569 3.65629 10.7174 4.12373 11.1885C4.59117 11.6596 5.15222 12.0313 5.77204 12.2806C6.39185 12.5298 7.05722 12.6513 7.72683 12.6374C9.12779 12.6374 10.2681 12.3494 11.2129 11.7734V7.80539H11.1804ZM27.4706 5.11739C27.4706 7.48539 26.3954 8.95739 24.3103 9.59739L28.1222 14.7494H24.9945L21.5084 9.94939H18.2829V14.7494H15.8394V0.47739H21.2477C23.4632 0.47739 25.0596 0.86139 26.0045 1.59739C26.9819 2.33339 27.438 3.51739 27.438 5.11739H27.4706ZM24.2125 7.13339C24.7012 6.71739 24.9293 6.04539 24.9293 5.11739C24.9293 4.15739 24.6687 3.51739 24.18 3.19739C23.6587 2.84539 22.7464 2.65339 21.4106 2.65339H18.2829V7.77339H21.3455C22.7464 7.77339 23.6912 7.58139 24.18 7.13339H24.2125ZM42.1318 12.7974C41.4116 13.4938 40.5554 14.0398 39.6148 14.4028C38.6741 14.7657 37.6685 14.9381 36.6583 14.9094C35.6606 14.9307 34.6686 14.7561 33.7406 14.3957C32.8125 14.0354 31.9671 13.4967 31.2539 12.8111C30.5408 12.1255 29.9742 11.3069 29.5874 10.4034C29.2007 9.49985 29.0016 8.52953 29.0019 7.54939C29.0016 6.56925 29.2007 5.59893 29.5874 4.69539C29.9742 3.79184 30.5408 2.97326 31.2539 2.28769C31.9671 1.60212 32.8125 1.06336 33.7406 0.703037C34.6686 0.342714 35.6606 0.168082 36.6583 0.18939C37.6587 0.163749 38.6541 0.335175 39.586 0.693552C40.5178 1.05193 41.3671 1.59 42.0838 2.27601C42.8005 2.96202 43.37 3.78207 43.7587 4.68777C44.1475 5.59348 44.3476 6.56649 44.3473 7.54939C44.3473 9.62939 43.5979 11.3894 42.1318 12.7974ZM40.3399 3.83739C39.8683 3.3466 39.2967 2.95899 38.6623 2.69983C38.028 2.44068 37.3451 2.31582 36.6583 2.33339C35.9724 2.33751 35.2942 2.47535 34.6631 2.73892C34.0319 3.00249 33.4603 3.38654 32.9814 3.86879C32.5025 4.35103 32.1259 4.92188 31.8734 5.54821C31.621 6.17454 31.4976 6.84387 31.5106 7.51739C31.4932 8.19625 31.6143 8.87166 31.8668 9.50381C32.1194 10.136 32.4982 10.7121 32.981 11.1982C33.4637 11.6843 34.0407 12.0706 34.6779 12.3342C35.315 12.5979 35.9995 12.7336 36.6908 12.7334C37.3767 12.7251 38.0541 12.5832 38.6837 12.3157C39.3133 12.0483 39.8825 11.6607 40.3584 11.1755C40.8342 10.6902 41.2072 10.117 41.4557 9.48903C41.7042 8.86107 41.8233 8.1909 41.806 7.51739C41.806 6.07739 41.3173 4.86139 40.3399 3.86939V3.83739ZM49.6579 11.4854C50.3095 12.2534 51.2217 12.6374 52.362 12.6374C53.5024 12.6374 54.4146 12.2534 55.0662 11.4854C55.7178 10.7174 56.0436 9.69339 56.0436 8.38139V0.47739H58.5197V8.47739C58.5197 10.5574 57.9333 12.1254 56.793 13.2774C55.6527 14.3654 54.1866 14.9094 52.362 14.9094C50.5701 14.9094 49.104 14.3654 47.9311 13.2454C47.3325 12.6115 46.8709 11.865 46.5741 11.051C46.2773 10.237 46.1515 9.37243 46.2043 8.50939V0.50939H48.6479V8.38139C48.6479 9.69339 48.9737 10.7494 49.6579 11.4854ZM71.1284 1.72539C72.171 2.55739 72.6597 3.83739 72.6597 5.56539C72.6597 7.29339 72.171 8.57339 71.1284 9.37339C70.0858 10.1734 68.5219 10.5894 66.3716 10.5894H63.7652V14.7494H61.3543V0.50939H66.3716C68.5545 0.50939 70.1836 0.92539 71.1936 1.78939L71.1284 1.72539ZM69.4668 7.61339C69.9555 7.10139 70.1836 6.36539 70.1836 5.37339C70.1836 4.41339 69.8578 3.67739 69.2387 3.29339C68.6197 2.87739 67.6423 2.65339 66.3065 2.65339H63.8304V8.41339H66.6649C68.0332 8.41339 68.9455 8.12539 69.4668 7.61339ZM85.529 2.36539C86.9299 3.61339 87.6467 5.34139 87.6467 7.54939C87.6467 9.78939 86.9625 11.5494 85.5941 12.8294C84.2257 14.1094 82.1732 14.7494 79.3712 14.7494H74.5168V0.50939H79.5341C82.1406 0.50939 84.128 1.14939 85.529 2.39739V2.36539ZM85.1706 7.61339C85.1706 4.34939 83.2483 2.71739 79.4364 2.71739H76.9929V12.5094H79.697C81.4564 12.5094 82.8248 12.0934 83.7696 11.2614C84.6819 10.4294 85.1706 9.21339 85.1706 7.61339ZM101.95 12.7974C101.229 13.4938 100.373 14.0398 99.4325 14.4028C98.4919 14.7657 97.4862 14.9381 96.476 14.9094C95.4783 14.9307 94.4863 14.7561 93.5583 14.3957C92.6303 14.0354 91.7848 13.4967 91.0717 12.8111C90.3585 12.1255 89.7919 11.3069 89.4052 10.4034C89.0184 9.49985 88.8193 8.52953 88.8196 7.54939C88.8193 6.56925 89.0184 5.59893 89.4052 4.69539C89.7919 3.79184 90.3585 2.97326 91.0717 2.28769C91.7848 1.60212 92.6303 1.06336 93.5583 0.703037C94.4863 0.342714 95.4783 0.168082 96.476 0.18939C97.4737 0.168082 98.4656 0.342714 99.3937 0.703037C100.322 1.06336 101.167 1.60212 101.88 2.28769C102.594 2.97326 103.16 3.79184 103.547 4.69539C103.934 5.59893 104.133 6.56925 104.132 7.54939C104.159 8.52498 103.978 9.49529 103.603 10.3987C103.227 11.3022 102.664 12.119 101.95 12.7974ZM100.125 3.83739C99.6572 3.35066 99.0908 2.96541 98.4624 2.7064C97.834 2.44738 97.1574 2.32033 96.476 2.33339C95.7901 2.33751 95.112 2.47535 94.4808 2.73892C93.8496 3.00249 93.278 3.38654 92.7991 3.86879C92.3203 4.35103 91.9436 4.92188 91.6912 5.54821C91.4387 6.17454 91.3153 6.84387 91.3283 7.51739C91.3109 8.19356 91.431 8.86635 91.6816 9.49639C91.9321 10.1264 92.308 10.7011 92.7873 11.1868C93.2666 11.6724 93.8397 12.0594 94.4731 12.3249C95.1064 12.5905 95.7873 12.7294 96.476 12.7334C97.1618 12.7293 97.84 12.5914 98.4712 12.3279C99.1024 12.0643 99.674 11.6802 100.153 11.198C100.632 10.7157 101.008 10.1449 101.261 9.51857C101.513 8.89224 101.637 8.22291 101.624 7.54939C101.624 6.10939 101.135 4.89339 100.125 3.90139V3.83739ZM112.831 12.5734C113.678 12.5734 114.428 12.4454 115.014 12.1574C115.735 11.8148 116.395 11.3611 116.969 10.8134L118.533 12.4134C117.841 13.2168 116.977 13.8601 116.003 14.2971C115.028 14.7342 113.968 14.9542 112.897 14.9414C111.889 14.9743 110.884 14.807 109.944 14.4496C109.003 14.0922 108.146 13.552 107.423 12.8614C106.71 12.1766 106.151 11.3533 105.781 10.4441C105.411 9.53498 105.238 8.55997 105.273 7.58139C105.268 6.58185 105.468 5.59161 105.862 4.67004C106.256 3.74847 106.836 2.91456 107.566 2.21831C108.296 1.52205 109.162 0.977786 110.112 0.61815C111.061 0.258513 112.075 0.0909107 113.092 0.12539C115.373 0.12539 117.23 0.95739 118.728 2.58939L117.165 4.25339C116.598 3.69638 115.936 3.24147 115.21 2.90939C114.518 2.62722 113.776 2.4857 113.027 2.49339C111.561 2.49339 110.323 2.97339 109.313 3.90139C108.335 4.86139 107.814 6.04539 107.814 7.48539C107.814 8.92539 108.335 10.1414 109.313 11.1334C110.29 12.0934 111.496 12.5734 112.831 12.5734ZM124.788 2.36539C124.072 2.36539 123.485 2.49339 123.029 2.78139C122.81 2.91657 122.632 3.10616 122.512 3.33095C122.391 3.55574 122.334 3.80773 122.345 4.06139C122.345 4.66939 122.573 5.11739 122.996 5.40539C123.485 5.72539 124.463 6.04539 125.929 6.39739C127.427 6.74939 128.535 7.26139 129.317 7.90139C130.066 8.54139 130.457 9.50139 130.457 10.7174C130.457 11.9334 129.969 12.9894 129.024 13.7574C128.079 14.5254 126.808 14.9734 125.212 14.9734C122.931 14.9734 120.911 14.2054 119.152 12.6694L120.683 10.8454C122.149 12.0934 123.681 12.7014 125.245 12.7014C126.059 12.7014 126.678 12.5414 127.167 12.2214C127.623 11.9014 127.851 11.4534 127.851 10.8774C127.851 10.3014 127.623 9.91739 127.199 9.59739C126.776 9.27739 125.994 9.02139 124.919 8.76539C123.876 8.50939 123.062 8.28539 122.508 8.06139C121.954 7.83739 121.465 7.58139 121.042 7.22939C120.162 6.58939 119.738 5.62939 119.738 4.28539C119.738 2.97339 120.227 1.94939 121.205 1.24539C122.182 0.54139 123.387 0.15739 124.821 0.15739C125.766 0.15739 126.678 0.31739 127.59 0.60539C128.535 0.92539 129.317 1.34139 129.969 1.88539L128.665 3.70939C128.152 3.27523 127.553 2.94857 126.906 2.74939C126.189 2.52539 125.473 2.39739 124.756 2.39739L124.788 2.36539Z"
    fill="black"/>
</svg>
