<svg class="svg-sprite" viewBox="0 0 32 32" xmlns="http://www.w3.org/2000/svg"
     xmlns:xlink="http://www.w3.org/1999/xlink">
  <style>:root > svg {
    display: none
  }

  :root > svg:target {
    display: block
  }</style>


  <!-- header -->
  <svg id="arrow-left" viewBox="0 0 16 12" xmlns="http://www.w3.org/2000/svg">
    <path d="M3.83 5L7.41 1.41L6 0L0 6L6 12L7.41 10.59L3.83 7H16V5H3.83Z" fill="#8A8F99"/>
  </svg>

  <svg id="language" xmlns="http://www.w3.org/2000/svg" viewBox="0 0 48 48">
    <path
      d="M24 44q-4.2 0-7.85-1.575Q12.5 40.85 9.8 38.15q-2.7-2.7-4.25-6.375Q4 28.1 4 23.9t1.55-7.825Q7.1 12.45 9.8 9.75t6.35-4.225Q19.8 4 24 4q4.2 0 7.85 1.525Q35.5 7.05 38.2 9.75q2.7 2.7 4.25 6.325Q44 19.7 44 23.9t-1.55 7.875Q40.9 35.45 38.2 38.15t-6.35 4.275Q28.2 44 24 44Zm0-2.9q1.75-1.8 2.925-4.125Q28.1 34.65 28.85 31.45H19.2q.7 3 1.875 5.4Q22.25 39.25 24 41.1Zm-4.25-.6q-1.25-1.9-2.15-4.1-.9-2.2-1.5-4.95H8.6Q10.5 35 13 37.025q2.5 2.025 6.75 3.475Zm8.55-.05q3.6-1.15 6.475-3.45 2.875-2.3 4.625-5.55h-7.45q-.65 2.7-1.525 4.9-.875 2.2-2.125 4.1Zm-20.7-12h7.95q-.15-1.35-.175-2.425-.025-1.075-.025-2.125 0-1.25.05-2.225.05-.975.2-2.175h-8q-.35 1.2-.475 2.15T7 23.9q0 1.3.125 2.325.125 1.025.475 2.225Zm11.05 0H29.4q.2-1.55.25-2.525.05-.975.05-2.025 0-1-.05-1.925T29.4 19.5H18.65q-.2 1.55-.25 2.475-.05.925-.05 1.925 0 1.05.05 2.025.05.975.25 2.525Zm13.75 0h8q.35-1.2.475-2.225Q41 25.2 41 23.9q0-1.3-.125-2.25T40.4 19.5h-7.95q.15 1.75.2 2.675.05.925.05 1.725 0 1.1-.075 2.075-.075.975-.225 2.475Zm-.5-11.95h7.5q-1.65-3.45-4.525-5.75Q32 8.45 28.25 7.5q1.25 1.85 2.125 4t1.525 5Zm-12.7 0h9.7q-.55-2.65-1.85-5.125T24 7q-1.6 1.35-2.7 3.55-1.1 2.2-2.1 5.95Zm-10.6 0h7.55q.55-2.7 1.4-4.825.85-2.125 2.15-4.125-3.75.95-6.55 3.2T8.6 16.5Z"
      fill="#558fff"/>
  </svg>

  <svg id="error" viewBox="0 0 28 28" fill="none" xmlns="http://www.w3.org/2000/svg">
    <g>
      <path
        d="M14 24.5C19.799 24.5 24.5 19.799 24.5 14C24.5 8.20101 19.799 3.5 14 3.5C8.20101 3.5 3.5 8.20101 3.5 14C3.5 19.799 8.20101 24.5 14 24.5Z"
        stroke="#FA3D31" stroke-width="2.625" stroke-linecap="round" stroke-linejoin="round"/>
      <path d="M14 8.75V14.4375" stroke="#FA3D31" stroke-width="2.625" stroke-linecap="round" stroke-linejoin="round"/>
      <path
        d="M14 20.5625C14.9665 20.5625 15.75 19.779 15.75 18.8125C15.75 17.846 14.9665 17.0625 14 17.0625C13.0335 17.0625 12.25 17.846 12.25 18.8125C12.25 19.779 13.0335 20.5625 14 20.5625Z"
        fill="#FA3D31"/>
    </g>

  </svg>

  <svg id="thumbnails" viewBox="0 0 16 16" fill="none" xmlns="http://www.w3.org/2000/svg">
    <rect y="8.75439" width="7.21924" height="7.24561" rx="2" fill="#8D9295"/>
    <rect x="8.78076" y="8.75439" width="7.21924" height="7.24561" rx="2" fill="#8D9295"/>
    <rect width="7.21924" height="7.24561" rx="2" fill="#8D9295"/>
    <rect x="8.78076" width="7.21924" height="7.24561" rx="2" fill="#8D9295"/>
  </svg>

  <svg id="plus" viewBox="0 0 24 24" fill="none" xmlns="http://www.w3.org/2000/svg">
    <path d="M11.25 18.75V12.75H5.25002V11.25H11.25V5.25002H12.75V11.25H18.75V12.75H12.75V18.75H11.25Z" fill="black"/>
  </svg>

  <svg id="plus-blue" viewBox="0 0 24 24" fill="none" xmlns="http://www.w3.org/2000/svg">
    <path d="M11.25 18.75V12.75H5.25002V11.25H11.25V5.25002H12.75V11.25H18.75V12.75H12.75V18.75H11.25Z" fill="#558FFF"/>
  </svg>

  <svg id="minus" viewBox="0 0 26 26" fill="none" xmlns="http://www.w3.org/2000/svg">
    <path d="M5.4165 13.8125V12.1875H20.5832V13.8125H5.4165Z" fill="#111111"/>
  </svg>

  <svg id="first" viewBox="0 0 27 26" fill="none" xmlns="http://www.w3.org/2000/svg">
    <path
      d="M18.1904 19.3646L19.355 18.2L14.155 13L19.355 7.8L18.1904 6.63542L11.8258 13L18.1904 19.3646ZM8.68206 19.5V6.5H7.05706V19.5H8.68206Z"
      fill="#111111"/>
  </svg>

  <svg id="prev" viewBox="0 0 26 26" fill="none" xmlns="http://www.w3.org/2000/svg">
    <path d="M14.8437 19.5L16.0083 18.3354L10.6458 12.9729L16.0083 7.61038L14.8437 6.4458L8.31663 12.9729L14.8437 19.5Z"
          fill="#111111"/>
  </svg>

  <svg id="next" viewBox="0 0 26 26" fill="none" xmlns="http://www.w3.org/2000/svg">
    <path d="M11.1563 19.5L9.9917 18.3354L15.3542 12.9729L9.9917 7.61038L11.1563 6.4458L17.6834 12.9729L11.1563 19.5Z"
          fill="#111111"/>
  </svg>

  <svg id="last" viewBox="0 0 27 26" fill="none" xmlns="http://www.w3.org/2000/svg">
    <path
      d="M8.22171 19.3646L7.05713 18.2L12.2571 13L7.05713 7.8L8.22171 6.63542L14.5863 13L8.22171 19.3646ZM17.73 19.5V6.5H19.355V19.5H17.73Z"
      fill="#111111"/>
  </svg>

  <svg id="print" viewBox="0 0 26 26" fill="none" xmlns="http://www.w3.org/2000/svg">
    <path
      d="M17.8207 8.45V4.875H8.179V8.45H6.554V3.25H19.4457V8.45H17.8207ZM20.0144 12.6479C20.2311 12.6479 20.4207 12.5667 20.5832 12.4042C20.7457 12.2417 20.8269 12.0521 20.8269 11.8354C20.8269 11.6188 20.7457 11.4292 20.5832 11.2667C20.4207 11.1042 20.2311 11.0229 20.0144 11.0229C19.7978 11.0229 19.6082 11.1042 19.4457 11.2667C19.2832 11.4292 19.2019 11.6188 19.2019 11.8354C19.2019 12.0521 19.2832 12.2417 19.4457 12.4042C19.6082 12.5667 19.7978 12.6479 20.0144 12.6479ZM17.8207 21.125V15.925H8.179V21.125H17.8207ZM19.4457 22.75H6.554V17.9833H2.1665V8.45H23.8332V17.9833H19.4457V22.75ZM22.2082 16.3583V10.075H3.7915V16.3583H6.554V14.3H19.4457V16.3583H22.2082ZM3.7915 10.075H22.2082H6.554H3.7915Z"
      fill="#111111"/>
  </svg>

  <svg id="download" viewBox="0 0 26 26" fill="none" xmlns="http://www.w3.org/2000/svg">
    <path
      d="M4.3335 22.75V21.125H21.6668V22.75H4.3335ZM13.0002 19.5L7.746 14.2458L8.91058 13.0813L12.1877 16.3583V3.25H13.8127V16.3583L16.9814 13.1896L18.146 14.3542L13.0002 19.5Z"
      fill="#111111"/>
  </svg>

  <svg id="arrow-down" viewBox="0 0 24 24" fill="none" xmlns="http://www.w3.org/2000/svg">
    <path d="M12 15.375L6 9.375L7.4 7.975L12 12.575L16.6 7.975L18 9.375L12 15.375Z" fill="black"/>
  </svg>

  <svg id="arrow-up" viewBox="0 0 24 24" fill="none" xmlns="http://www.w3.org/2000/svg">
    <path d="M7.4 15.375L6 13.975L12 7.975L18 13.975L16.6 15.375L12 10.775L7.4 15.375Z" fill="black"/>
  </svg>

  <svg id="close" fill="none" viewBox="0 0 48 48" xmlns="http://www.w3.org/2000/svg">
    <path
      d="m12.45 37.65-2.1-2.1L21.9 24 10.35 12.45l2.1-2.1L24 21.9l11.55-11.55 2.1 2.1L26.1 24l11.55 11.55-2.1 2.1L24 26.1Z"
      fill="#111111"/>
  </svg>

  <svg id="spinner" viewBox="0 0 24 24" xmlns="http://www.w3.org/2000/svg">
    <path d="M12,1A11,11,0,1,0,23,12,11,11,0,0,0,12,1Zm0,19a8,8,0,1,1,8-8A8,8,0,0,1,12,20Z" opacity=".25"/>
    <path d="M10.72,19.9a8,8,0,0,1-6.5-9.79A7.77,7.77,0,0,1,10.4,4.16a8,8,0,0,1,9.49,6.52A1.54,1.54,0,0,0,21.38,12h.13a1.37,1.37,0,0,0,1.38-1.54,11,11,0,1,0-12.7,12.39A1.54,1.54,0,0,0,12,21.34h0A1.47,1.47,0,0,0,10.72,19.9Z"/>
  </svg>

  <svg id="check" viewBox="0 0 24 24" fill="none" xmlns="http://www.w3.org/2000/svg">
    <path d="M9.55001 18L3.85001 12.3L5.27501 10.875L9.55001 15.15L18.725 5.975L20.15 7.4L9.55001 18Z" fill="black"/>
  </svg>

  <svg id="check-blue" viewBox="0 0 24 24" fill="none" xmlns="http://www.w3.org/2000/svg">
    <path d="M9.55001 18L3.85001 12.3L5.27501 10.875L9.55001 15.15L18.725 5.975L20.15 7.4L9.55001 18Z" fill="#558FFF"/>
  </svg>

  <svg id="check-white" viewBox="0 0 24 24" fill="none" xmlns="http://www.w3.org/2000/svg">
    <path d="M9.55001 18L3.85001 12.3L5.27501 10.875L9.55001 15.15L18.725 5.975L20.15 7.4L9.55001 18Z" fill="white"/>
  </svg>

  <svg id="folder" viewBox="0 0 24 24" fill="none" xmlns="http://www.w3.org/2000/svg">
    <path d="M4 20C3.45 20 2.97917 19.8042 2.5875 19.4125C2.19583 19.0208 2 18.55 2 18V6C2 5.45 2.19583 4.97917 2.5875 4.5875C2.97917 4.19583 3.45 4 4 4H10L12 6H20C20.55 6 21.0208 6.19583 21.4125 6.5875C21.8042 6.97917 22 7.45 22 8V18C22 18.55 21.8042 19.0208 21.4125 19.4125C21.0208 19.8042 20.55 20 20 20H4ZM4 18H20V8H11.175L9.175 6H4V18Z" fill="black"/>
  </svg>

  <svg id="upload" viewBox="-5 -4 24 24" fill="none" xmlns="http://www.w3.org/2000/svg">
    <path d="M6.94067 3.96094L11.4641 8.48438L10.4563 9.49219L7.6438 6.67969L7.6438 15.375L6.23755 15.375L6.23755 6.67969L3.42505 9.49219L2.41724 8.48438L6.94067 3.96094ZM13.0344 0.375L13.0344 1.78125L0.846924 1.78125L0.846923 0.375001L13.0344 0.375Z" fill="#333333"/>
  </svg>

  <svg id="upload-white" viewBox="-5 -4 24 24" fill="none" xmlns="http://www.w3.org/2000/svg">
    <path d="M6.94067 3.96094L11.4641 8.48438L10.4563 9.49219L7.6438 6.67969L7.6438 15.375L6.23755 15.375L6.23755 6.67969L3.42505 9.49219L2.41724 8.48438L6.94067 3.96094ZM13.0344 0.375L13.0344 1.78125L0.846924 1.78125L0.846923 0.375001L13.0344 0.375Z" fill="white"/>
  </svg>

  <svg id="more-vert" viewBox="0 0 24 24" fill="none" xmlns="http://www.w3.org/2000/svg">
    <path d="M12 19.2692C11.5875 19.2692 11.2344 19.1223 10.9406 18.8286C10.6469 18.5348 10.5 18.1817 10.5 17.7692C10.5 17.3567 10.6469 17.0036 10.9406 16.7099C11.2344 16.4161 11.5875 16.2693 12 16.2693C12.4125 16.2693 12.7656 16.4161 13.0594 16.7099C13.3531 17.0036 13.5 17.3567 13.5 17.7692C13.5 18.1817 13.3531 18.5348 13.0594 18.8286C12.7656 19.1223 12.4125 19.2692 12 19.2692ZM12 13.5C11.5875 13.5 11.2344 13.3531 10.9406 13.0594C10.6469 12.7656 10.5 12.4125 10.5 12C10.5 11.5875 10.6469 11.2344 10.9406 10.9407C11.2344 10.6469 11.5875 10.5 12 10.5C12.4125 10.5 12.7656 10.6469 13.0594 10.9407C13.3531 11.2344 13.5 11.5875 13.5 12C13.5 12.4125 13.3531 12.7656 13.0594 13.0594C12.7656 13.3531 12.4125 13.5 12 13.5ZM12 7.73075C11.5875 7.73075 11.2344 7.58388 10.9406 7.29013C10.6469 6.99639 10.5 6.64328 10.5 6.23078C10.5 5.8183 10.6469 5.46518 10.9406 5.17143C11.2344 4.87769 11.5875 4.73083 12 4.73083C12.4125 4.73083 12.7656 4.87769 13.0594 5.17143C13.3531 5.46518 13.5 5.8183 13.5 6.23078C13.5 6.64328 13.3531 6.99639 13.0594 7.29013C12.7656 7.58388 12.4125 7.73075 12 7.73075Z" fill="black"/>
  </svg>

  <svg id="edit" viewBox="0 0 24 24" fill="none" xmlns="http://www.w3.org/2000/svg">
    <path d="M5.15385 19H6.39038L15.6501 9.74035L14.4135 8.5038L5.15385 17.7635V19ZM18.8577 8.65575L15.4827 5.31158L16.7866 4.00775C17.0802 3.71417 17.4372 3.56738 17.8577 3.56738C18.2782 3.56738 18.6352 3.71417 18.9288 4.00775L20.1461 5.22502C20.4397 5.51861 20.5916 5.87053 20.6019 6.28078C20.6121 6.69103 20.4705 7.04294 20.1769 7.33653L18.8577 8.65575ZM17.7731 9.75573L7.02883 20.5H3.6539V17.125L14.3981 6.38078L17.7731 9.75573ZM15.027 9.11727L14.4135 8.5038L15.6501 9.74035L15.027 9.11727Z" fill="black"/>
  </svg>

</svg>
