<svg viewBox="0 0 26 23" fill="none" xmlns="http://www.w3.org/2000/svg">
  <path fill-rule="evenodd" clip-rule="evenodd"
        d="M13.1512 10.1814C14.4417 10.1561 15.6696 9.6305 16.5669 8.71921C17.4642 7.80792 17.958 6.58499 17.9405 5.31737C17.9405 2.62937 15.7902 0.453369 13.1512 0.453369C10.5122 0.453369 8.29673 2.62937 8.29673 5.31737C8.2881 5.95308 8.40813 6.58414 8.64986 7.17391C8.89159 7.76368 9.2502 8.30041 9.70487 8.75293C10.1595 9.20545 10.7012 9.56475 11.2984 9.80997C11.8956 10.0552 12.5365 10.1814 13.1838 10.1814H13.1512ZM17.8102 8.86937C18.3315 9.12537 18.9505 9.25337 19.5696 9.25337C21.8502 9.25337 23.7399 7.33337 23.7399 5.02937C23.7528 4.48039 23.655 3.93432 23.452 3.42266C23.2491 2.911 22.945 2.44387 22.5573 2.04821C22.1696 1.65255 21.706 1.3362 21.1932 1.1174C20.6804 0.898593 20.1286 0.78167 19.5696 0.773369C18.785 0.78103 18.018 1.0026 17.3541 1.41337C18.3641 2.3759 18.9709 3.6747 19.0553 5.05443C19.1397 6.43415 18.6956 7.79498 17.8102 8.86937ZM6.56996 9.25337C7.22157 9.25337 7.80802 9.12537 8.36189 8.86937C7.46933 7.79798 7.02059 6.43559 7.10513 5.05374C7.18966 3.67189 7.80126 2.37208 8.81801 1.41337C8.16641 0.997369 7.38447 0.741369 6.53738 0.741369C5.97831 0.75378 5.42728 0.874807 4.91608 1.09747C4.40487 1.32013 3.94363 1.64001 3.55895 2.03866C3.17427 2.43732 2.87377 2.90684 2.6748 3.42015C2.47582 3.93346 2.38232 4.48038 2.39966 5.02937C2.39105 5.57835 2.49316 6.12357 2.70012 6.6336C2.90707 7.14363 3.21477 7.60838 3.60547 8.00105C3.99618 8.39372 4.46216 8.70654 4.97655 8.92148C5.49094 9.13641 6.04356 9.24921 6.60254 9.25337H6.56996ZM5.03868 10.8214C3.47482 10.8214 2.69289 9.54137 2.69289 9.54137C1.38967 9.54137 0.803223 10.5974 0.803223 11.8774V16.8374C0.803223 17.9254 2.75805 18.8854 5.169 19.4614V12.8054C5.169 11.6214 6.08126 10.6614 7.25415 10.5014C6.60254 10.5974 5.46223 10.8214 5.03868 10.8214ZM17.2889 11.2694C17.2889 11.2694 16.0183 12.5174 14.4544 12.5174C13.9657 12.5174 13.5748 11.7174 13.0535 11.7174C12.239 11.7174 12.0435 12.5174 11.3267 12.5174C10.219 12.5174 8.65511 11.2694 8.65511 11.2694C7.35189 11.2694 6.30932 12.2934 6.30932 13.5734V20.3894C6.30932 23.0774 19.6673 23.1734 19.6673 20.3894V13.5734C19.6673 12.2934 18.5921 11.2694 17.2889 11.2694ZM16.6047 19.1414C15.106 19.4294 10.9032 19.4614 9.37188 19.1414C8.81801 19.0454 8.49221 18.9174 8.49221 18.5014C8.49221 18.1494 8.75285 17.8934 9.37188 18.0534C11.7738 18.3433 14.2028 18.3433 16.6047 18.0534C17.517 17.9574 17.5822 18.1494 17.6147 18.5334C17.6473 18.9494 17.2238 19.0134 16.6047 19.1414ZM16.6047 17.1254C15.106 17.4454 10.9032 17.4454 9.37188 17.1254C8.81801 17.0294 8.49221 16.9014 8.49221 16.5174C8.49221 16.1334 8.75285 15.8774 9.37188 16.0374C10.5448 16.3574 14.3893 16.3574 16.6047 16.0374C17.517 15.9414 17.5822 16.1334 17.6147 16.5174C17.6473 16.9334 17.2238 17.0294 16.6047 17.1574V17.1254ZM23.2837 9.57337C23.2837 9.57337 22.4692 10.8214 20.9054 10.8214C20.4492 10.8214 19.3415 10.5654 18.6899 10.5014C19.8628 10.6614 20.7425 11.6214 20.7425 12.8054V19.4294C23.1534 18.8854 25.1734 17.9254 25.1734 16.8374V11.8774C25.1734 10.5974 24.587 9.57337 23.2837 9.57337Z"
        fill="#2689C9"/>
</svg>
