<svg class="svg-sprite" viewBox="0 0 32 32" xmlns="http://www.w3.org/2000/svg"
     xmlns:xlink="http://www.w3.org/1999/xlink">
  <style>:root > svg {
    display: none
  }

  :root > svg:target {
    display: block
  }</style>


  <!-- header -->
  <svg id="arrow-left" viewBox="0 0 16 12" xmlns="http://www.w3.org/2000/svg">
    <path d="M3.83 5L7.41 1.41L6 0L0 6L6 12L7.41 10.59L3.83 7H16V5H3.83Z" fill="#8A8F99"/>
  </svg>

  <svg id="language" xmlns="http://www.w3.org/2000/svg" viewBox="0 0 48 48">
    <path
      d="M24 44q-4.2 0-7.85-1.575Q12.5 40.85 9.8 38.15q-2.7-2.7-4.25-6.375Q4 28.1 4 23.9t1.55-7.825Q7.1 12.45 9.8 9.75t6.35-4.225Q19.8 4 24 4q4.2 0 7.85 1.525Q35.5 7.05 38.2 9.75q2.7 2.7 4.25 6.325Q44 19.7 44 23.9t-1.55 7.875Q40.9 35.45 38.2 38.15t-6.35 4.275Q28.2 44 24 44Zm0-2.9q1.75-1.8 2.925-4.125Q28.1 34.65 28.85 31.45H19.2q.7 3 1.875 5.4Q22.25 39.25 24 41.1Zm-4.25-.6q-1.25-1.9-2.15-4.1-.9-2.2-1.5-4.95H8.6Q10.5 35 13 37.025q2.5 2.025 6.75 3.475Zm8.55-.05q3.6-1.15 6.475-3.45 2.875-2.3 4.625-5.55h-7.45q-.65 2.7-1.525 4.9-.875 2.2-2.125 4.1Zm-20.7-12h7.95q-.15-1.35-.175-2.425-.025-1.075-.025-2.125 0-1.25.05-2.225.05-.975.2-2.175h-8q-.35 1.2-.475 2.15T7 23.9q0 1.3.125 2.325.125 1.025.475 2.225Zm11.05 0H29.4q.2-1.55.25-2.525.05-.975.05-2.025 0-1-.05-1.925T29.4 19.5H18.65q-.2 1.55-.25 2.475-.05.925-.05 1.925 0 1.05.05 2.025.05.975.25 2.525Zm13.75 0h8q.35-1.2.475-2.225Q41 25.2 41 23.9q0-1.3-.125-2.25T40.4 19.5h-7.95q.15 1.75.2 2.675.05.925.05 1.725 0 1.1-.075 2.075-.075.975-.225 2.475Zm-.5-11.95h7.5q-1.65-3.45-4.525-5.75Q32 8.45 28.25 7.5q1.25 1.85 2.125 4t1.525 5Zm-12.7 0h9.7q-.55-2.65-1.85-5.125T24 7q-1.6 1.35-2.7 3.55-1.1 2.2-2.1 5.95Zm-10.6 0h7.55q.55-2.7 1.4-4.825.85-2.125 2.15-4.125-3.75.95-6.55 3.2T8.6 16.5Z"
      fill="#558fff"/>
  </svg>

  <svg id="error" viewBox="0 0 28 28" fill="none" xmlns="http://www.w3.org/2000/svg">
    <g>
      <path
        d="M14 24.5C19.799 24.5 24.5 19.799 24.5 14C24.5 8.20101 19.799 3.5 14 3.5C8.20101 3.5 3.5 8.20101 3.5 14C3.5 19.799 8.20101 24.5 14 24.5Z"
        stroke="#FA3D31" stroke-width="2.625" stroke-linecap="round" stroke-linejoin="round"/>
      <path d="M14 8.75V14.4375" stroke="#FA3D31" stroke-width="2.625" stroke-linecap="round" stroke-linejoin="round"/>
      <path
        d="M14 20.5625C14.9665 20.5625 15.75 19.779 15.75 18.8125C15.75 17.846 14.9665 17.0625 14 17.0625C13.0335 17.0625 12.25 17.846 12.25 18.8125C12.25 19.779 13.0335 20.5625 14 20.5625Z"
        fill="#FA3D31"/>
    </g>

  </svg>

  <svg id="thumbnails" viewBox="0 0 16 16" fill="none" xmlns="http://www.w3.org/2000/svg">
    <rect y="8.75439" width="7.21924" height="7.24561" rx="2" fill="#8D9295"/>
    <rect x="8.78076" y="8.75439" width="7.21924" height="7.24561" rx="2" fill="#8D9295"/>
    <rect width="7.21924" height="7.24561" rx="2" fill="#8D9295"/>
    <rect x="8.78076" width="7.21924" height="7.24561" rx="2" fill="#8D9295"/>
  </svg>

  <svg id="plus" viewBox="0 0 24 24" fill="none" xmlns="http://www.w3.org/2000/svg">
    <path d="M11.25 18.75V12.75H5.25002V11.25H11.25V5.25002H12.75V11.25H18.75V12.75H12.75V18.75H11.25Z" fill="black"/>
  </svg>

  <svg id="plus-blue" viewBox="0 0 24 24" fill="none" xmlns="http://www.w3.org/2000/svg">
    <path d="M11.25 18.75V12.75H5.25002V11.25H11.25V5.25002H12.75V11.25H18.75V12.75H12.75V18.75H11.25Z" fill="#558FFF"/>
  </svg>

  <svg id="minus" viewBox="0 0 26 26" fill="none" xmlns="http://www.w3.org/2000/svg">
    <path d="M5.4165 13.8125V12.1875H20.5832V13.8125H5.4165Z" fill="#111111"/>
  </svg>

  <svg id="first" viewBox="0 0 27 26" fill="none" xmlns="http://www.w3.org/2000/svg">
    <path
      d="M18.1904 19.3646L19.355 18.2L14.155 13L19.355 7.8L18.1904 6.63542L11.8258 13L18.1904 19.3646ZM8.68206 19.5V6.5H7.05706V19.5H8.68206Z"
      fill="#111111"/>
  </svg>

  <svg id="prev" viewBox="0 0 26 26" fill="none" xmlns="http://www.w3.org/2000/svg">
    <path d="M14.8437 19.5L16.0083 18.3354L10.6458 12.9729L16.0083 7.61038L14.8437 6.4458L8.31663 12.9729L14.8437 19.5Z"
          fill="#111111"/>
  </svg>

  <svg id="next" viewBox="0 0 26 26" fill="none" xmlns="http://www.w3.org/2000/svg">
    <path d="M11.1563 19.5L9.9917 18.3354L15.3542 12.9729L9.9917 7.61038L11.1563 6.4458L17.6834 12.9729L11.1563 19.5Z"
          fill="#111111"/>
  </svg>

  <svg id="last" viewBox="0 0 27 26" fill="none" xmlns="http://www.w3.org/2000/svg">
    <path
      d="M8.22171 19.3646L7.05713 18.2L12.2571 13L7.05713 7.8L8.22171 6.63542L14.5863 13L8.22171 19.3646ZM17.73 19.5V6.5H19.355V19.5H17.73Z"
      fill="#111111"/>
  </svg>

  <svg id="print" viewBox="0 0 26 26" fill="none" xmlns="http://www.w3.org/2000/svg">
    <path
      d="M17.8207 8.45V4.875H8.179V8.45H6.554V3.25H19.4457V8.45H17.8207ZM20.0144 12.6479C20.2311 12.6479 20.4207 12.5667 20.5832 12.4042C20.7457 12.2417 20.8269 12.0521 20.8269 11.8354C20.8269 11.6188 20.7457 11.4292 20.5832 11.2667C20.4207 11.1042 20.2311 11.0229 20.0144 11.0229C19.7978 11.0229 19.6082 11.1042 19.4457 11.2667C19.2832 11.4292 19.2019 11.6188 19.2019 11.8354C19.2019 12.0521 19.2832 12.2417 19.4457 12.4042C19.6082 12.5667 19.7978 12.6479 20.0144 12.6479ZM17.8207 21.125V15.925H8.179V21.125H17.8207ZM19.4457 22.75H6.554V17.9833H2.1665V8.45H23.8332V17.9833H19.4457V22.75ZM22.2082 16.3583V10.075H3.7915V16.3583H6.554V14.3H19.4457V16.3583H22.2082ZM3.7915 10.075H22.2082H6.554H3.7915Z"
      fill="#111111"/>
  </svg>

  <svg id="download" viewBox="0 0 26 26" fill="none" xmlns="http://www.w3.org/2000/svg">
    <path
      d="M4.3335 22.75V21.125H21.6668V22.75H4.3335ZM13.0002 19.5L7.746 14.2458L8.91058 13.0813L12.1877 16.3583V3.25H13.8127V16.3583L16.9814 13.1896L18.146 14.3542L13.0002 19.5Z"
      fill="#111111"/>
  </svg>

  <svg id="arrow-down" viewBox="0 0 24 24" fill="none" xmlns="http://www.w3.org/2000/svg">
    <path d="M12 15.375L6 9.375L7.4 7.975L12 12.575L16.6 7.975L18 9.375L12 15.375Z" fill="black"/>
  </svg>

  <svg id="arrow-up" viewBox="0 0 24 24" fill="none" xmlns="http://www.w3.org/2000/svg">
    <path d="M7.4 15.375L6 13.975L12 7.975L18 13.975L16.6 15.375L12 10.775L7.4 15.375Z" fill="black"/>
  </svg>

  <svg id="close" fill="none" viewBox="0 0 48 48" xmlns="http://www.w3.org/2000/svg">
    <path
      d="m12.45 37.65-2.1-2.1L21.9 24 10.35 12.45l2.1-2.1L24 21.9l11.55-11.55 2.1 2.1L26.1 24l11.55 11.55-2.1 2.1L24 26.1Z"
      fill="#111111"/>
  </svg>

  <svg id="spinner" viewBox="0 0 24 24" xmlns="http://www.w3.org/2000/svg">
    <path d="M12,1A11,11,0,1,0,23,12,11,11,0,0,0,12,1Zm0,19a8,8,0,1,1,8-8A8,8,0,0,1,12,20Z" opacity=".25"/>
    <path d="M10.72,19.9a8,8,0,0,1-6.5-9.79A7.77,7.77,0,0,1,10.4,4.16a8,8,0,0,1,9.49,6.52A1.54,1.54,0,0,0,21.38,12h.13a1.37,1.37,0,0,0,1.38-1.54,11,11,0,1,0-12.7,12.39A1.54,1.54,0,0,0,12,21.34h0A1.47,1.47,0,0,0,10.72,19.9Z"/>
  </svg>

  <svg id="check" viewBox="0 0 24 24" fill="none" xmlns="http://www.w3.org/2000/svg">
    <path d="M9.55001 18L3.85001 12.3L5.27501 10.875L9.55001 15.15L18.725 5.975L20.15 7.4L9.55001 18Z" fill="black"/>
  </svg>

  <svg id="check-blue" viewBox="0 0 24 24" fill="none" xmlns="http://www.w3.org/2000/svg">
    <path d="M9.55001 18L3.85001 12.3L5.27501 10.875L9.55001 15.15L18.725 5.975L20.15 7.4L9.55001 18Z" fill="#558FFF"/>
  </svg>

  <svg id="check-white" viewBox="0 0 24 24" fill="none" xmlns="http://www.w3.org/2000/svg">
    <path d="M9.55001 18L3.85001 12.3L5.27501 10.875L9.55001 15.15L18.725 5.975L20.15 7.4L9.55001 18Z" fill="white"/>
  </svg>

  <svg id="folder" viewBox="0 0 24 24" fill="none" xmlns="http://www.w3.org/2000/svg">
    <path d="M4 20C3.45 20 2.97917 19.8042 2.5875 19.4125C2.19583 19.0208 2 18.55 2 18V6C2 5.45 2.19583 4.97917 2.5875 4.5875C2.97917 4.19583 3.45 4 4 4H10L12 6H20C20.55 6 21.0208 6.19583 21.4125 6.5875C21.8042 6.97917 22 7.45 22 8V18C22 18.55 21.8042 19.0208 21.4125 19.4125C21.0208 19.8042 20.55 20 20 20H4ZM4 18H20V8H11.175L9.175 6H4V18Z" fill="black"/>
  </svg>

  <svg id="upload" viewBox="-5 -4 24 24" fill="none" xmlns="http://www.w3.org/2000/svg">
    <path d="M6.94067 3.96094L11.4641 8.48438L10.4563 9.49219L7.6438 6.67969L7.6438 15.375L6.23755 15.375L6.23755 6.67969L3.42505 9.49219L2.41724 8.48438L6.94067 3.96094ZM13.0344 0.375L13.0344 1.78125L0.846924 1.78125L0.846923 0.375001L13.0344 0.375Z" fill="#333333"/>
  </svg>

  <svg id="upload-white" viewBox="-5 -4 24 24" fill="none" xmlns="http://www.w3.org/2000/svg">
    <path d="M6.94067 3.96094L11.4641 8.48438L10.4563 9.49219L7.6438 6.67969L7.6438 15.375L6.23755 15.375L6.23755 6.67969L3.42505 9.49219L2.41724 8.48438L6.94067 3.96094ZM13.0344 0.375L13.0344 1.78125L0.846924 1.78125L0.846923 0.375001L13.0344 0.375Z" fill="white"/>
  </svg>

  <svg id="more-vert" viewBox="0 0 24 24" fill="none" xmlns="http://www.w3.org/2000/svg">
    <path d="M12 19.2692C11.5875 19.2692 11.2344 19.1223 10.9406 18.8286C10.6469 18.5348 10.5 18.1817 10.5 17.7692C10.5 17.3567 10.6469 17.0036 10.9406 16.7099C11.2344 16.4161 11.5875 16.2693 12 16.2693C12.4125 16.2693 12.7656 16.4161 13.0594 16.7099C13.3531 17.0036 13.5 17.3567 13.5 17.7692C13.5 18.1817 13.3531 18.5348 13.0594 18.8286C12.7656 19.1223 12.4125 19.2692 12 19.2692ZM12 13.5C11.5875 13.5 11.2344 13.3531 10.9406 13.0594C10.6469 12.7656 10.5 12.4125 10.5 12C10.5 11.5875 10.6469 11.2344 10.9406 10.9407C11.2344 10.6469 11.5875 10.5 12 10.5C12.4125 10.5 12.7656 10.6469 13.0594 10.9407C13.3531 11.2344 13.5 11.5875 13.5 12C13.5 12.4125 13.3531 12.7656 13.0594 13.0594C12.7656 13.3531 12.4125 13.5 12 13.5ZM12 7.73075C11.5875 7.73075 11.2344 7.58388 10.9406 7.29013C10.6469 6.99639 10.5 6.64328 10.5 6.23078C10.5 5.8183 10.6469 5.46518 10.9406 5.17143C11.2344 4.87769 11.5875 4.73083 12 4.73083C12.4125 4.73083 12.7656 4.87769 13.0594 5.17143C13.3531 5.46518 13.5 5.8183 13.5 6.23078C13.5 6.64328 13.3531 6.99639 13.0594 7.29013C12.7656 7.58388 12.4125 7.73075 12 7.73075Z" fill="black"/>
  </svg>

  <svg id="edit" viewBox="0 0 24 24" fill="none" xmlns="http://www.w3.org/2000/svg">
    <path d="M5.15385 19H6.39038L15.6501 9.74035L14.4135 8.5038L5.15385 17.7635V19ZM18.8577 8.65575L15.4827 5.31158L16.7866 4.00775C17.0802 3.71417 17.4372 3.56738 17.8577 3.56738C18.2782 3.56738 18.6352 3.71417 18.9288 4.00775L20.1461 5.22502C20.4397 5.51861 20.5916 5.87053 20.6019 6.28078C20.6121 6.69103 20.4705 7.04294 20.1769 7.33653L18.8577 8.65575ZM17.7731 9.75573L7.02883 20.5H3.6539V17.125L14.3981 6.38078L17.7731 9.75573ZM15.027 9.11727L14.4135 8.5038L15.6501 9.74035L15.027 9.11727Z" fill="black"/>
  </svg>

  <svg id="help" viewBox="0 0 24 24" fill="none" xmlns="http://www.w3.org/2000/svg">
    <path d="M11.95 18C12.3 18 12.5958 17.8792 12.8375 17.6375C13.0792 17.3958 13.2 17.1 13.2 16.75C13.2 16.4 13.0792 16.1042 12.8375 15.8625C12.5958 15.6208 12.3 15.5 11.95 15.5C11.6 15.5 11.3042 15.6208 11.0625 15.8625C10.8208 16.1042 10.7 16.4 10.7 16.75C10.7 17.1 10.8208 17.3958 11.0625 17.6375C11.3042 17.8792 11.6 18 11.95 18ZM11.05 14.15H12.9C12.9 13.6 12.9625 13.1667 13.0875 12.85C13.2125 12.5333 13.5667 12.1 14.15 11.55C14.5833 11.1167 14.925 10.7042 15.175 10.3125C15.425 9.92083 15.55 9.45 15.55 8.9C15.55 7.96667 15.2083 7.25 14.525 6.75C13.8417 6.25 13.0333 6 12.1 6C11.15 6 10.3792 6.25 9.7875 6.75C9.19583 7.25 8.78333 7.85 8.55 8.55L10.2 9.2C10.2833 8.9 10.4708 8.575 10.7625 8.225C11.0542 7.875 11.5 7.7 12.1 7.7C12.6333 7.7 13.0333 7.84583 13.3 8.1375C13.5667 8.42917 13.7 8.75 13.7 9.1C13.7 9.43333 13.6 9.74583 13.4 10.0375C13.2 10.3292 12.95 10.6 12.65 10.85C11.9167 11.5 11.4667 11.9917 11.3 12.325C11.1333 12.6583 11.05 13.2667 11.05 14.15ZM12 22C10.6167 22 9.31667 21.7375 8.1 21.2125C6.88333 20.6875 5.825 19.975 4.925 19.075C4.025 18.175 3.3125 17.1167 2.7875 15.9C2.2625 14.6833 2 13.3833 2 12C2 10.6167 2.2625 9.31667 2.7875 8.1C3.3125 6.88333 4.025 5.825 4.925 4.925C5.825 4.025 6.88333 3.3125 8.1 2.7875C9.31667 2.2625 10.6167 2 12 2C13.3833 2 14.6833 2.2625 15.9 2.7875C17.1167 3.3125 18.175 4.025 19.075 4.925C19.975 5.825 20.6875 6.88333 21.2125 8.1C21.7375 9.31667 22 10.6167 22 12C22 13.3833 21.7375 14.6833 21.2125 15.9C20.6875 17.1167 19.975 18.175 19.075 19.075C18.175 19.975 17.1167 20.6875 15.9 21.2125C14.6833 21.7375 13.3833 22 12 22ZM12 20C14.2333 20 16.125 19.225 17.675 17.675C19.225 16.125 20 14.2333 20 12C20 9.76667 19.225 7.875 17.675 6.325C16.125 4.775 14.2333 4 12 4C9.76667 4 7.875 4.775 6.325 6.325C4.775 7.875 4 9.76667 4 12C4 14.2333 4.775 16.125 6.325 17.675C7.875 19.225 9.76667 20 12 20Z" fill="#9e9e9e"/>
  </svg>

  <svg id="delete" viewBox="0 0 24 24" fill="none" xmlns="http://www.w3.org/2000/svg">
    <path d="M7.30773 20.5C6.80901 20.5 6.38306 20.3234 6.02986 19.9702C5.67664 19.617 5.50003 19.191 5.50003 18.6923V6H4.50003V4.50002H9.00001V3.61543H15V4.50002H19.5V6H18.5V18.6923C18.5 19.1974 18.325 19.625 17.975 19.975C17.625 20.325 17.1974 20.5 16.6923 20.5H7.30773ZM17 6H7.00001V18.6923C7.00001 18.782 7.02886 18.8558 7.08656 18.9135C7.14426 18.9712 7.21798 19 7.30773 19H16.6923C16.7692 19 16.8397 18.968 16.9039 18.9039C16.968 18.8397 17 18.7692 17 18.6923V6ZM9.40388 17H10.9039V8H9.40388V17ZM13.0962 17H14.5961V8H13.0962V17Z" fill="currentColor"/>
  </svg>

  <svg id="numbers" viewBox="0 0 24 24" fill="none" xmlns="http://www.w3.org/2000/svg">
    <path d="M5.5 15V10.5H4V9H7V15H5.5ZM9 15V12.5C9 12.2167 9.09583 11.9792 9.2875 11.7875C9.47917 11.5958 9.71667 11.5 10 11.5H12V10.5H9V9H12.5C12.7833 9 13.0208 9.09583 13.2125 9.2875C13.4042 9.47917 13.5 9.71667 13.5 10V11.5C13.5 11.7833 13.4042 12.0208 13.2125 12.2125C13.0208 12.4042 12.7833 12.5 12.5 12.5H10.5V13.5H13.5V15H9ZM15 15V13.5H18V12.5H16V11.5H18V10.5H15V9H18.5C18.7833 9 19.0208 9.09583 19.2125 9.2875C19.4042 9.47917 19.5 9.71667 19.5 10V14C19.5 14.2833 19.4042 14.5208 19.2125 14.7125C19.0208 14.9042 18.7833 15 18.5 15H15Z" fill="#7C7C7C"/>
  </svg>

  <svg id="letters" viewBox="0 0 24 24" fill="none" xmlns="http://www.w3.org/2000/svg">
    <path d="M17.0192 14.8461C16.7686 14.8461 16.5585 14.7614 16.389 14.5918C16.2194 14.4223 16.1346 14.2122 16.1346 13.9615V10.0385C16.1346 9.78782 16.2194 9.57772 16.389 9.40817C16.5585 9.23862 16.7686 9.15385 17.0192 9.15385H19.9423C20.1929 9.15385 20.403 9.23862 20.5726 9.40817C20.7421 9.57772 20.8269 9.78782 20.8269 10.0385V11H19.6346V10.3461H17.3269V13.6538H19.6346V13H20.8269V13.9615C20.8269 14.2122 20.7421 14.4223 20.5726 14.5918C20.403 14.7614 20.1929 14.8461 19.9423 14.8461H17.0192ZM9.65385 14.8461V9.15385H13.4615C13.7122 9.15385 13.9223 9.23862 14.0918 9.40817C14.2614 9.57772 14.3462 9.78782 14.3462 10.0385V11.1538C14.3462 11.3923 14.276 11.5881 14.1356 11.7413C13.9952 11.8945 13.8026 11.9808 13.5577 12C13.8026 12.0192 13.9952 12.1054 14.1356 12.2586C14.276 12.4118 14.3462 12.6077 14.3462 12.8461V13.9615C14.3462 14.2122 14.2614 14.4223 14.0918 14.5918C13.9223 14.7614 13.7122 14.8461 13.4615 14.8461H9.65385ZM10.8462 11.4038H13.1539V10.3461H10.8462V11.4038ZM10.8462 13.6538H13.1539V12.5961H10.8462V13.6538ZM3.1731 14.8461V10.0385C3.1731 9.78782 3.25788 9.57772 3.42743 9.40817C3.59698 9.23862 3.80707 9.15385 4.0577 9.15385H6.98078C7.23141 9.15385 7.4415 9.23862 7.61105 9.40817C7.7806 9.57772 7.86538 9.78782 7.86538 10.0385V14.8461H6.6731V13.25H4.36538V14.8461H3.1731ZM4.36538 12.0577H6.6731V10.3461H4.36538V12.0577Z" fill="#7C7C7C"/>
  </svg>

  <svg id="calendar" viewBox="0 0 24 24" fill="none" xmlns="http://www.w3.org/2000/svg">
    <path d="M5 22C4.45 22 3.97917 21.8042 3.5875 21.4125C3.19583 21.0208 3 20.55 3 20V6C3 5.45 3.19583 4.97917 3.5875 4.5875C3.97917 4.19583 4.45 4 5 4H6V2H8V4H16V2H18V4H19C19.55 4 20.0208 4.19583 20.4125 4.5875C20.8042 4.97917 21 5.45 21 6V20C21 20.55 20.8042 21.0208 20.4125 21.4125C20.0208 21.8042 19.55 22 19 22H5ZM5 20H19V10H5V20ZM5 8H19V6H5V8Z" fill="#7C7C7C"/>
  </svg>

  <svg id="array" viewBox="0 0 24 24" fill="none" xmlns="http://www.w3.org/2000/svg">
    <path d="M15 20V18H18V6H15V4H20V20H15ZM4 20V4H9V6H6V18H9V20H4Z" fill="#7C7C7C"/>
  </svg>

  <svg id="play" viewBox="0 0 11 14" fill="none" xmlns="http://www.w3.org/2000/svg">
    <path d="M0.500031 13.0961V0.9039L10.0769 7L0.500031 13.0961ZM2.00001 10.35L7.26923 7L2.00001 3.65V10.35Z" fill="black"/>
  </svg>

  <svg id="cancel-presentation" viewBox="0 0 24 24" fill="none" xmlns="http://www.w3.org/2000/svg">
    <path d="M9.4 15.6538L12 13.0538L14.6 15.6538L15.6538 14.6L13.0538 12L15.6538 9.4L14.6 8.34617L12 10.9462L9.4 8.34617L8.34617 9.4L10.9462 12L8.34617 14.6L9.4 15.6538ZM4.30772 19.5C3.80259 19.5 3.37502 19.325 3.02502 18.975C2.67502 18.625 2.50002 18.1974 2.50002 17.6923V6.30772C2.50002 5.80259 2.67502 5.37502 3.02502 5.02502C3.37502 4.67502 3.80259 4.50002 4.30772 4.50002H19.6923C20.1974 4.50002 20.625 4.67502 20.975 5.02502C21.325 5.37502 21.5 5.80259 21.5 6.30772V17.6923C21.5 18.1974 21.325 18.625 20.975 18.975C20.625 19.325 20.1974 19.5 19.6923 19.5H4.30772ZM4.30772 18H19.6923C19.7692 18 19.8397 17.9679 19.9038 17.9038C19.9679 17.8397 20 17.7692 20 17.6923V6.30772C20 6.23079 19.9679 6.16026 19.9038 6.09615C19.8397 6.03205 19.7692 6 19.6923 6H4.30772C4.23079 6 4.16026 6.03205 4.09615 6.09615C4.03205 6.16026 4 6.23079 4 6.30772V17.6923C4 17.7692 4.03205 17.8397 4.09615 17.9038C4.16026 17.9679 4.23079 18 4.30772 18Z" fill="black"/>
  </svg>

  <svg id="pause-presentation" viewBox="0 0 24 24" fill="none" xmlns="http://www.w3.org/2000/svg">
    <path d="M9.40387 15.75H10.9038V8.25002H9.40387V15.75ZM13.0961 15.75H14.5961V8.25002H13.0961V15.75ZM4.30772 19.5C3.80259 19.5 3.37502 19.325 3.02502 18.975C2.67502 18.625 2.50002 18.1974 2.50002 17.6923V6.30772C2.50002 5.80259 2.67502 5.37502 3.02502 5.02502C3.37502 4.67502 3.80259 4.50002 4.30772 4.50002H19.6923C20.1974 4.50002 20.625 4.67502 20.975 5.02502C21.325 5.37502 21.5 5.80259 21.5 6.30772V17.6923C21.5 18.1974 21.325 18.625 20.975 18.975C20.625 19.325 20.1974 19.5 19.6923 19.5H4.30772ZM4.30772 18H19.6923C19.7692 18 19.8397 17.9679 19.9038 17.9038C19.9679 17.8397 20 17.7692 20 17.6923V6.30772C20 6.23079 19.9679 6.16026 19.9038 6.09615C19.8397 6.03205 19.7692 6 19.6923 6H4.30772C4.23079 6 4.16026 6.03205 4.09615 6.09615C4.03205 6.16026 4 6.23079 4 6.30772V17.6923C4 17.7692 4.03205 17.8397 4.09615 17.9038C4.16026 17.9679 4.23079 18 4.30772 18Z" fill="black"/>
  </svg>

  <svg id="resume-presentation" viewBox="0 0 24 24" fill="none" xmlns="http://www.w3.org/2000/svg">
    <path d="M9.75002 16.0384L16.0384 12L9.75002 7.96157V16.0384ZM4.30772 19.5C3.80259 19.5 3.37502 19.325 3.02502 18.975C2.67502 18.625 2.50002 18.1974 2.50002 17.6923V6.30772C2.50002 5.80259 2.67502 5.37502 3.02502 5.02502C3.37502 4.67502 3.80259 4.50002 4.30772 4.50002H19.6923C20.1974 4.50002 20.625 4.67502 20.975 5.02502C21.325 5.37502 21.5 5.80259 21.5 6.30772V17.6923C21.5 18.1974 21.325 18.625 20.975 18.975C20.625 19.325 20.1974 19.5 19.6923 19.5H4.30772ZM4.30772 18H19.6923C19.7692 18 19.8397 17.9679 19.9038 17.9038C19.9679 17.8397 20 17.7692 20 17.6923V6.30772C20 6.23079 19.9679 6.16026 19.9038 6.09615C19.8397 6.03205 19.7692 6 19.6923 6H4.30772C4.23079 6 4.16026 6.03205 4.09615 6.09615C4.03205 6.16026 4 6.23079 4 6.30772V17.6923C4 17.7692 4.03205 17.8397 4.09615 17.9038C4.16026 17.9679 4.23079 18 4.30772 18Z" fill="black"/>
  </svg>

  <svg id="go-fullscreen" viewBox="0 0 24 24" fill="none" xmlns="http://www.w3.org/2000/svg">
    <path d="M5 19V14H6.49997V17.5H10V19H5ZM5 10V5H10V6.49998H6.49997V10H5ZM14 19V17.5H17.5V14H19V19H14ZM17.5 10V6.49998H14V5H19V10H17.5Z" fill="black"/>
  </svg>

  <svg id="exit-fullscreen" viewBox="0 0 24 24" fill="none" xmlns="http://www.w3.org/2000/svg">
    <path d="M8.50003 19V15.5H5V14H10V19H8.50003ZM14 19V14H19V15.5H15.5V19H14ZM5 10V8.50002H8.50003V5H10V10H5ZM14 10V5H15.5V8.50002H19V10H14Z" fill="black"/>
  </svg>

  <svg id="folder-open" viewBox="0 0 24 24" fill="none" xmlns="http://www.w3.org/2000/svg">
    <path d="M4 20C3.45 20 2.97917 19.8042 2.5875 19.4125C2.19583 19.0208 2 18.55 2 18V6C2 5.45 2.19583 4.97917 2.5875 4.5875C2.97917 4.19583 3.45 4 4 4H10L12 6H20C20.55 6 21.0208 6.19583 21.4125 6.5875C21.8042 6.97917 22 7.45 22 8H11.175L9.175 6H4V18L6.4 10H23.5L20.925 18.575C20.7917 19.0083 20.5458 19.3542 20.1875 19.6125C19.8292 19.8708 19.4333 20 19 20H4ZM6.1 18H19L20.8 12H7.9L6.1 18Z" fill="black"/>
  </svg>

  <svg id="add-link" viewBox="0 0 24 24" fill="none" xmlns="http://www.w3.org/2000/svg">
    <path d="M17 20V17H14V15H17V12H19V15H22V17H19V20H17ZM11 17H7C5.61667 17 4.4375 16.5125 3.4625 15.5375C2.4875 14.5625 2 13.3833 2 12C2 10.6167 2.4875 9.4375 3.4625 8.4625C4.4375 7.4875 5.61667 7 7 7H11V9H7C6.16667 9 5.45833 9.29167 4.875 9.875C4.29167 10.4583 4 11.1667 4 12C4 12.8333 4.29167 13.5417 4.875 14.125C5.45833 14.7083 6.16667 15 7 15H11V17ZM8 13V11H16V13H8ZM22 12H20C20 11.1667 19.7083 10.4583 19.125 9.875C18.5417 9.29167 17.8333 9 17 9H13V7H17C18.3833 7 19.5625 7.4875 20.5375 8.4625C21.5125 9.4375 22 10.6167 22 12Z" fill="black"/>
  </svg>

  <svg id="search" viewBox="0 0 24 24" fill="none" xmlns="http://www.w3.org/2000/svg">
    <path d="M19.6 21L13.3 14.7C12.8 15.1 12.225 15.4167 11.575 15.65C10.925 15.8833 10.2333 16 9.5 16C7.68333 16 6.14583 15.3708 4.8875 14.1125C3.62917 12.8542 3 11.3167 3 9.5C3 7.68333 3.62917 6.14583 4.8875 4.8875C6.14583 3.62917 7.68333 3 9.5 3C11.3167 3 12.8542 3.62917 14.1125 4.8875C15.3708 6.14583 16 7.68333 16 9.5C16 10.2333 15.8833 10.925 15.65 11.575C15.4167 12.225 15.1 12.8 14.7 13.3L21 19.6L19.6 21ZM9.5 14C10.75 14 11.8125 13.5625 12.6875 12.6875C13.5625 11.8125 14 10.75 14 9.5C14 8.25 13.5625 7.1875 12.6875 6.3125C11.8125 5.4375 10.75 5 9.5 5C8.25 5 7.1875 5.4375 6.3125 6.3125C5.4375 7.1875 5 8.25 5 9.5C5 10.75 5.4375 11.8125 6.3125 12.6875C7.1875 13.5625 8.25 14 9.5 14Z" fill="black"/>
  </svg>

  <svg id="menu-open" viewBox="0 0 24 24" fill="none" xmlns="http://www.w3.org/2000/svg">
    <path d="M3.2981 17.6346V16.1346H15.798V17.6346H3.2981ZM19.6481 16.6538L14.9942 12L19.6481 7.34618L20.7019 8.4L17.1019 12L20.7019 15.6L19.6481 16.6538ZM3.2981 12.75V11.25H12.798V12.75H3.2981ZM3.2981 7.86538V6.3654H15.798V7.86538H3.2981Z" fill="black"/>
  </svg>

  <svg id="text" viewBox="0 0 24 24" fill="none" xmlns="http://www.w3.org/2000/svg">
    <path d="M7 20V7H2V4H15V7H10V20H7ZM16 20V12H13V9H22V12H19V20H16Z" fill="black"/>
  </svg>

  <svg id="table" viewBox="0 0 1024 1024" xmlns="http://www.w3.org/2000/svg">
    <path d="M859.1 161H165.9c-19.8 0-35.9 16.9-35.9 37.7v627.7c0 20.8 16.1 37.7 35.9 37.7h693.3c19.8 0 35.9-16.9 35.9-37.7V198.7c-0.1-20.8-16.2-37.7-36-37.7z m0 150.6v147.2H652V311.6h207.1zM408.9 642.9V496.5h207.2V643H408.9z m207.2 37.7v145.7H408.9V680.6h207.2zM373 642.9H165.9V496.5H373v146.4z m243.1-331.3v147.2H408.9V311.6h207.2zM652 496.5h207.2V643H652V496.5zM416.9 198.7c19.8 0 35.9 16.9 35.9 37.7 0 20.8-16.1 37.7-35.9 37.7-19.8 0-35.9-16.9-35.9-37.7 0-20.9 16.1-37.7 35.9-37.7z m-107.6 0c19.8 0 35.9 16.9 35.9 37.7 0 20.8-16.1 37.7-35.9 37.7-19.8 0-35.9-16.9-35.9-37.7 0-20.9 16.1-37.7 35.9-37.7z m-107.6 0c19.8 0 35.9 16.9 35.9 37.7 0 20.8-16.1 37.7-35.9 37.7-19.8 0-35.9-16.9-35.9-37.7 0.1-20.9 16.1-37.7 35.9-37.7z m0 112.9H373v147.2H165.9V311.6h35.8z m-35.8 369H373v145.7H165.9V680.6zM652 826.3V680.6h207.2v145.7H652z m0 0"/>
  </svg>

  <svg id="barcode" viewBox="0 0 24 24" fill="none" xmlns="http://www.w3.org/2000/svg">
    <path d="M1.84622 18.6538V5.73083H3.69235V18.6538H1.84622ZM4.61542 18.6538V5.73083H6.46157V18.6538H4.61542ZM7.38465 18.6538V5.73083H8.30772V18.6538H7.38465ZM10.1538 18.6538V5.73083H12V18.6538H10.1538ZM12.9231 18.6538V5.73083H15.6923V18.6538H12.9231ZM16.6153 18.6538V5.73083H17.5384V18.6538H16.6153ZM19.3846 18.6538V5.73083H22.1538V18.6538H19.3846Z" fill="black"/>
  </svg>

  <svg id="list" viewBox="0 0 24 24" fill="none" xmlns="http://www.w3.org/2000/svg">
    <path d="M4.07931 16.8269C3.84567 16.8269 3.64906 16.7479 3.48946 16.5899C3.32984 16.4318 3.25003 16.236 3.25003 16.0024C3.25003 15.7687 3.32905 15.5721 3.48708 15.4125C3.64511 15.2529 3.84095 15.1731 4.07458 15.1731C4.3082 15.1731 4.50481 15.2521 4.66443 15.4102C4.82405 15.5682 4.90386 15.764 4.90386 15.9977C4.90386 16.2313 4.82483 16.4279 4.66678 16.5875C4.50875 16.7471 4.31292 16.8269 4.07931 16.8269ZM4.07931 12.8269C3.84567 12.8269 3.64906 12.7479 3.48946 12.5899C3.32984 12.4318 3.25003 12.236 3.25003 12.0024C3.25003 11.7687 3.32905 11.5721 3.48708 11.4125C3.64511 11.2529 3.84095 11.1731 4.07458 11.1731C4.3082 11.1731 4.50481 11.2521 4.66443 11.4102C4.82405 11.5682 4.90386 11.764 4.90386 11.9977C4.90386 12.2313 4.82483 12.4279 4.66678 12.5875C4.50875 12.7471 4.31292 12.8269 4.07931 12.8269ZM4.07931 8.8269C3.84567 8.8269 3.64906 8.74789 3.48946 8.58985C3.32984 8.43182 3.25003 8.23599 3.25003 8.00235C3.25003 7.76874 3.32905 7.57212 3.48708 7.4125C3.64511 7.2529 3.84095 7.1731 4.07458 7.1731C4.3082 7.1731 4.50481 7.25212 4.66443 7.41015C4.82405 7.56819 4.90386 7.76402 4.90386 7.99765C4.90386 8.23127 4.82483 8.42789 4.66678 8.5875C4.50875 8.7471 4.31292 8.8269 4.07931 8.8269ZM7.11541 16.75V15.25H20.75V16.75H7.11541ZM7.11541 12.75V11.25H20.75V12.75H7.11541ZM7.11541 8.74998V7.25003H20.75V8.74998H7.11541Z" fill="black"/>
  </svg>

  <svg id="delete" viewBox="0 0 24 24" fill="none" xmlns="http://www.w3.org/2000/svg">
    <path d="M7.30773 20.5C6.80901 20.5 6.38306 20.3234 6.02986 19.9702C5.67664 19.617 5.50003 19.191 5.50003 18.6923V6H4.50003V4.50002H9.00001V3.61543H15V4.50002H19.5V6H18.5V18.6923C18.5 19.1974 18.325 19.625 17.975 19.975C17.625 20.325 17.1974 20.5 16.6923 20.5H7.30773ZM17 6H7.00001V18.6923C7.00001 18.782 7.02886 18.8558 7.08656 18.9135C7.14426 18.9712 7.21798 19 7.30773 19H16.6923C16.7692 19 16.8397 18.968 16.9039 18.9039C16.968 18.8397 17 18.7692 17 18.6923V6ZM9.40388 17H10.9039V8H9.40388V17ZM13.0962 17H14.5961V8H13.0962V17Z" fill="black"/>
  </svg>

  <svg id="check" viewBox="0 0 24 24" fill="none" xmlns="http://www.w3.org/2000/svg">
    <path d="M9.54999 17.6538L4.21539 12.3192L5.28462 11.25L9.54999 15.5154L18.7154 6.35002L19.7846 7.41922L9.54999 17.6538Z" fill="black"/>
  </svg>

  <svg id="sync" viewBox="0 0 24 24" fill="none" xmlns="http://www.w3.org/2000/svg">
    <path d="M4.32696 19.6731V18.1731H7.25003L6.52311 17.4769C5.70131 16.7166 5.11701 15.8657 4.77021 14.924C4.42342 13.9824 4.25003 13.0308 4.25003 12.0692C4.25003 10.341 4.75611 8.79138 5.76828 7.42023C6.78045 6.04908 8.10768 5.10772 9.74998 4.59617V6.1769C8.54358 6.6487 7.57531 7.42146 6.84518 8.49518C6.11505 9.56891 5.74998 10.7603 5.74998 12.0692C5.74998 12.8513 5.89806 13.6109 6.19423 14.3481C6.49038 15.0853 6.95127 15.7667 7.57691 16.3923L8.21156 17.027V14.2885H9.71153V19.6731H4.32696ZM14.25 19.4038V17.8231C15.4564 17.3513 16.4247 16.5785 17.1548 15.5048C17.885 14.4311 18.25 13.2397 18.25 11.9308C18.25 11.1487 18.1019 10.3891 17.8058 9.65193C17.5096 8.91474 17.0487 8.23333 16.4231 7.60768L15.7885 6.97303V9.71153H14.2885V4.32695H19.6731V5.8269H16.75L17.4769 6.5231C18.2679 7.31412 18.8445 8.17277 19.2067 9.09905C19.5689 10.0253 19.75 10.9692 19.75 11.9308C19.75 13.659 19.2439 15.2086 18.2317 16.5798C17.2196 17.9509 15.8923 18.8923 14.25 19.4038Z" fill="black"/>
  </svg>

  <svg id="expand-right" viewBox="0 0 24 24" fill="none" xmlns="http://www.w3.org/2000/svg">
    <path d="M11.5 16L11.5 8L7.5 12L11.5 16ZM21 19C21 19.55 20.8042 20.0208 20.4125 20.4125C20.0208 20.8042 19.55 21 19 21H5C4.45 21 3.97917 20.8042 3.5875 20.4125C3.19583 20.0208 3 19.55 3 19L3 5C3 4.45 3.19583 3.97917 3.5875 3.5875C3.97917 3.19583 4.45 3 5 3H19C19.55 3 20.0208 3.19583 20.4125 3.5875C20.8042 3.97917 21 4.45 21 5V19ZM16 19H19V5H16V19ZM14 19L14 5H5L5 19H14Z" fill="black"/>
  </svg>

  <svg id="text" viewBox="0 0 24 24" fill="none" xmlns="http://www.w3.org/2000/svg">
    <path d="M7 20V7H2V4H15V7H10V20H7ZM16 20V12H13V9H22V12H19V20H16Z" fill="black"/>
  </svg>

  <svg id="image" viewBox="0 0 24 24" fill="none" xmlns="http://www.w3.org/2000/svg">
    <path d="M5 21C4.45 21 3.97917 20.8042 3.5875 20.4125C3.19583 20.0208 3 19.55 3 19V5C3 4.45 3.19583 3.97917 3.5875 3.5875C3.97917 3.19583 4.45 3 5 3H19C19.55 3 20.0208 3.19583 20.4125 3.5875C20.8042 3.97917 21 4.45 21 5V19C21 19.55 20.8042 20.0208 20.4125 20.4125C20.0208 20.8042 19.55 21 19 21H5ZM5 19H19V5H5V19ZM6 17H18L14.25 12L11.25 16L9 13L6 17Z" fill="black"/>
  </svg>

  <svg id="format-bold" viewBox="0 0 24 24" fill="none" xmlns="http://www.w3.org/2000/svg">
    <path d="M6.8 19V5H12.325C13.4083 5 14.4083 5.33333 15.325 6C16.2417 6.66667 16.7 7.59167 16.7 8.775C16.7 9.625 16.5083 10.2792 16.125 10.7375C15.7417 11.1958 15.3833 11.525 15.05 11.725C15.4667 11.9083 15.9292 12.25 16.4375 12.75C16.9458 13.25 17.2 14 17.2 15C17.2 16.4833 16.6583 17.5208 15.575 18.1125C14.4917 18.7042 13.475 19 12.525 19H6.8ZM9.825 16.2H12.425C13.225 16.2 13.7125 15.9958 13.8875 15.5875C14.0625 15.1792 14.15 14.8833 14.15 14.7C14.15 14.5167 14.0625 14.2208 13.8875 13.8125C13.7125 13.4042 13.2 13.2 12.35 13.2H9.825V16.2ZM9.825 10.5H12.15C12.7 10.5 13.1 10.3583 13.35 10.075C13.6 9.79167 13.725 9.475 13.725 9.125C13.725 8.725 13.5833 8.4 13.3 8.15C13.0167 7.9 12.65 7.775 12.2 7.775H9.825V10.5Z" fill="black"/>
  </svg>

  <svg id="format-italic" viewBox="0 0 24 24" fill="none" xmlns="http://www.w3.org/2000/svg">
    <path d="M5 19V16.5H9L12 7.5H8V5H18V7.5H14.5L11.5 16.5H15V19H5Z" fill="black"/>
  </svg>

  <svg id="format-underline" viewBox="0 0 24 24" fill="none" xmlns="http://www.w3.org/2000/svg">
    <path d="M5 21V19H19V21H5ZM12 17C10.3167 17 9.00833 16.475 8.075 15.425C7.14167 14.375 6.675 12.9833 6.675 11.25V3H9.25V11.4C9.25 12.3333 9.48333 13.0917 9.95 13.675C10.4167 14.2583 11.1 14.55 12 14.55C12.9 14.55 13.5833 14.2583 14.05 13.675C14.5167 13.0917 14.75 12.3333 14.75 11.4V3H17.325V11.25C17.325 12.9833 16.8583 14.375 15.925 15.425C14.9917 16.475 13.6833 17 12 17Z" fill="black"/>
  </svg>

  <svg id="palette" viewBox="0 0 24 24" fill="none" xmlns="http://www.w3.org/2000/svg">
    <path d="M12 22C10.6333 22 9.34167 21.7375 8.125 21.2125C6.90833 20.6875 5.84583 19.9708 4.9375 19.0625C4.02917 18.1542 3.3125 17.0917 2.7875 15.875C2.2625 14.6583 2 13.3667 2 12C2 10.6167 2.27083 9.31667 2.8125 8.1C3.35417 6.88333 4.0875 5.825 5.0125 4.925C5.9375 4.025 7.01667 3.3125 8.25 2.7875C9.48333 2.2625 10.8 2 12.2 2C13.5333 2 14.7917 2.22917 15.975 2.6875C17.1583 3.14583 18.1958 3.77917 19.0875 4.5875C19.9792 5.39583 20.6875 6.35417 21.2125 7.4625C21.7375 8.57083 22 9.76667 22 11.05C22 12.9667 21.4167 14.4375 20.25 15.4625C19.0833 16.4875 17.6667 17 16 17H14.15C14 17 13.8958 17.0417 13.8375 17.125C13.7792 17.2083 13.75 17.3 13.75 17.4C13.75 17.6 13.875 17.8875 14.125 18.2625C14.375 18.6375 14.5 19.0667 14.5 19.55C14.5 20.3833 14.2708 21 13.8125 21.4C13.3542 21.8 12.75 22 12 22ZM6.5 13C6.93333 13 7.29167 12.8583 7.575 12.575C7.85833 12.2917 8 11.9333 8 11.5C8 11.0667 7.85833 10.7083 7.575 10.425C7.29167 10.1417 6.93333 10 6.5 10C6.06667 10 5.70833 10.1417 5.425 10.425C5.14167 10.7083 5 11.0667 5 11.5C5 11.9333 5.14167 12.2917 5.425 12.575C5.70833 12.8583 6.06667 13 6.5 13ZM9.5 9C9.93333 9 10.2917 8.85833 10.575 8.575C10.8583 8.29167 11 7.93333 11 7.5C11 7.06667 10.8583 6.70833 10.575 6.425C10.2917 6.14167 9.93333 6 9.5 6C9.06667 6 8.70833 6.14167 8.425 6.425C8.14167 6.70833 8 7.06667 8 7.5C8 7.93333 8.14167 8.29167 8.425 8.575C8.70833 8.85833 9.06667 9 9.5 9ZM14.5 9C14.9333 9 15.2917 8.85833 15.575 8.575C15.8583 8.29167 16 7.93333 16 7.5C16 7.06667 15.8583 6.70833 15.575 6.425C15.2917 6.14167 14.9333 6 14.5 6C14.0667 6 13.7083 6.14167 13.425 6.425C13.1417 6.70833 13 7.06667 13 7.5C13 7.93333 13.1417 8.29167 13.425 8.575C13.7083 8.85833 14.0667 9 14.5 9ZM17.5 13C17.9333 13 18.2917 12.8583 18.575 12.575C18.8583 12.2917 19 11.9333 19 11.5C19 11.0667 18.8583 10.7083 18.575 10.425C18.2917 10.1417 17.9333 10 17.5 10C17.0667 10 16.7083 10.1417 16.425 10.425C16.1417 10.7083 16 11.0667 16 11.5C16 11.9333 16.1417 12.2917 16.425 12.575C16.7083 12.8583 17.0667 13 17.5 13ZM12 20C12.15 20 12.2708 19.9583 12.3625 19.875C12.4542 19.7917 12.5 19.6833 12.5 19.55C12.5 19.3167 12.375 19.0417 12.125 18.725C11.875 18.4083 11.75 17.9333 11.75 17.3C11.75 16.6 11.9917 16.0417 12.475 15.625C12.9583 15.2083 13.55 15 14.25 15H16C17.1 15 18.0417 14.6792 18.825 14.0375C19.6083 13.3958 20 12.4 20 11.05C20 9.03333 19.2292 7.35417 17.6875 6.0125C16.1458 4.67083 14.3167 4 12.2 4C9.93333 4 8 4.775 6.4 6.325C4.8 7.875 4 9.76667 4 12C4 14.2167 4.77917 16.1042 6.3375 17.6625C7.89583 19.2208 9.78333 20 12 20Z" fill="black"/>
  </svg>

  <svg id="delete" viewBox="0 0 24 24" fill="none" xmlns="http://www.w3.org/2000/svg">
    <path d="M7.30773 20.5C6.80901 20.5 6.38306 20.3234 6.02986 19.9702C5.67664 19.617 5.50003 19.191 5.50003 18.6923V6H4.50003V4.50002H9.00001V3.61543H15V4.50002H19.5V6H18.5V18.6923C18.5 19.1974 18.325 19.625 17.975 19.975C17.625 20.325 17.1974 20.5 16.6923 20.5H7.30773ZM17 6H7.00001V18.6923C7.00001 18.782 7.02886 18.8558 7.08656 18.9135C7.14426 18.9712 7.21798 19 7.30773 19H16.6923C16.7692 19 16.8397 18.968 16.9039 18.9039C16.968 18.8397 17 18.7692 17 18.6923V6ZM9.40388 17H10.9039V8H9.40388V17ZM13.0962 17H14.5961V8H13.0962V17Z" fill="black"/>
  </svg>

  <svg id="copy" viewBox="0 0 24 24" fill="none" xmlns="http://www.w3.org/2000/svg">
    <path d="M9 18C8.45 18 7.97917 17.8042 7.5875 17.4125C7.19583 17.0208 7 16.55 7 16V4C7 3.45 7.19583 2.97917 7.5875 2.5875C7.97917 2.19583 8.45 2 9 2H18C18.55 2 19.0208 2.19583 19.4125 2.5875C19.8042 2.97917 20 3.45 20 4V16C20 16.55 19.8042 17.0208 19.4125 17.4125C19.0208 17.8042 18.55 18 18 18H9ZM9 16H18V4H9V16ZM5 22C4.45 22 3.97917 21.8042 3.5875 21.4125C3.19583 21.0208 3 20.55 3 20V6H5V20H16V22H5Z" fill="black"/>
  </svg>

  <svg id="write" viewBox="0 0 24 24" fill="none" xmlns="http://www.w3.org/2000/svg">
    <path d="M12.475 16.825L20.85 8.45L19.55 7.15L11.175 15.525L12.475 16.825ZM5.95 19C4.28333 18.9167 3.04167 18.5667 2.225 17.95C1.40833 17.3333 1 16.4417 1 15.275C1 14.1917 1.44583 13.3125 2.3375 12.6375C3.22917 11.9625 4.46667 11.5583 6.05 11.425C6.7 11.375 7.1875 11.2708 7.5125 11.1125C7.8375 10.9542 8 10.7333 8 10.45C8 10.0167 7.75417 9.69167 7.2625 9.475C6.77083 9.25833 5.95833 9.1 4.825 9L5 7C6.71667 7.13333 7.97917 7.47917 8.7875 8.0375C9.59583 8.59583 10 9.4 10 10.45C10 11.3333 9.67917 12.025 9.0375 12.525C8.39583 13.025 7.45 13.325 6.2 13.425C5.13333 13.5083 4.33333 13.7042 3.8 14.0125C3.26667 14.3208 3 14.7417 3 15.275C3 15.8583 3.23333 16.2792 3.7 16.5375C4.16667 16.7958 4.95 16.95 6.05 17L5.95 19ZM12.95 19.175L8.825 15.05L18.375 5.5C18.7083 5.16667 19.1042 5 19.5625 5C20.0208 5 20.4167 5.16667 20.75 5.5L22.5 7.25C22.8333 7.58333 23 7.97917 23 8.4375C23 8.89583 22.8333 9.29167 22.5 9.625L12.95 19.175ZM8.975 20C8.69167 20.0667 8.44167 19.9917 8.225 19.775C8.00833 19.5583 7.93333 19.3083 8 19.025L8.825 15.05L12.95 19.175L8.975 20Z" fill="black"/>
  </svg>

  <svg id="fingerprint" viewBox="0 0 24 24" fill="none" xmlns="http://www.w3.org/2000/svg">
    <path d="M3.25 9.65C3.13333 9.56667 3.0625 9.4625 3.0375 9.3375C3.0125 9.2125 3.05 9.08333 3.15 8.95C4.18333 7.53333 5.47917 6.43333 7.0375 5.65C8.59583 4.86667 10.2583 4.475 12.025 4.475C13.7917 4.475 15.4583 4.85417 17.025 5.6125C18.5917 6.37083 19.9 7.46667 20.95 8.9C21.0667 9.05 21.1042 9.18333 21.0625 9.3C21.0208 9.41667 20.95 9.51667 20.85 9.6C20.75 9.68333 20.6333 9.72083 20.5 9.7125C20.3667 9.70417 20.25 9.63333 20.15 9.5C19.2333 8.2 18.0542 7.20417 16.6125 6.5125C15.1708 5.82083 13.6417 5.475 12.025 5.475C10.4083 5.475 8.89167 5.82083 7.475 6.5125C6.05833 7.20417 4.88333 8.2 3.95 9.5C3.85 9.65 3.73333 9.73333 3.6 9.75C3.46667 9.76667 3.35 9.73333 3.25 9.65ZM14.85 21.975C13.1167 21.5417 11.7 20.6792 10.6 19.3875C9.5 18.0958 8.95 16.5167 8.95 14.65C8.95 13.8167 9.25 13.1167 9.85 12.55C10.45 11.9833 11.175 11.7 12.025 11.7C12.875 11.7 13.6 11.9833 14.2 12.55C14.8 13.1167 15.1 13.8167 15.1 14.65C15.1 15.2 15.3083 15.6625 15.725 16.0375C16.1417 16.4125 16.6333 16.6 17.2 16.6C17.7667 16.6 18.25 16.4125 18.65 16.0375C19.05 15.6625 19.25 15.2 19.25 14.65C19.25 12.7167 18.5417 11.0917 17.125 9.775C15.7083 8.45833 14.0167 7.8 12.05 7.8C10.0833 7.8 8.39167 8.45833 6.975 9.775C5.55833 11.0917 4.85 12.7083 4.85 14.625C4.85 15.025 4.8875 15.525 4.9625 16.125C5.0375 16.725 5.21667 17.425 5.5 18.225C5.55 18.375 5.54583 18.5083 5.4875 18.625C5.42917 18.7417 5.33333 18.825 5.2 18.875C5.06667 18.925 4.9375 18.9208 4.8125 18.8625C4.6875 18.8042 4.6 18.7083 4.55 18.575C4.3 17.925 4.12083 17.2792 4.0125 16.6375C3.90417 15.9958 3.85 15.3333 3.85 14.65C3.85 12.4333 4.65417 10.575 6.2625 9.075C7.87083 7.575 9.79167 6.825 12.025 6.825C14.275 6.825 16.2083 7.575 17.825 9.075C19.4417 10.575 20.25 12.4333 20.25 14.65C20.25 15.4833 19.9542 16.1792 19.3625 16.7375C18.7708 17.2958 18.05 17.575 17.2 17.575C16.35 17.575 15.6208 17.2958 15.0125 16.7375C14.4042 16.1792 14.1 15.4833 14.1 14.65C14.1 14.1 13.8958 13.6375 13.4875 13.2625C13.0792 12.8875 12.5917 12.7 12.025 12.7C11.4583 12.7 10.9708 12.8875 10.5625 13.2625C10.1542 13.6375 9.95 14.1 9.95 14.65C9.95 16.2667 10.4292 17.6167 11.3875 18.7C12.3458 19.7833 13.5833 20.5417 15.1 20.975C15.25 21.025 15.35 21.1083 15.4 21.225C15.45 21.3417 15.4583 21.4667 15.425 21.6C15.3917 21.7167 15.325 21.8167 15.225 21.9C15.125 21.9833 15 22.0083 14.85 21.975ZM6.5 4.425C6.36667 4.50833 6.23333 4.52917 6.1 4.4875C5.96667 4.44583 5.86667 4.35833 5.8 4.225C5.73333 4.09167 5.71667 3.97083 5.75 3.8625C5.78333 3.75417 5.86667 3.65833 6 3.575C6.93333 3.075 7.90833 2.69167 8.925 2.425C9.94167 2.15833 10.975 2.025 12.025 2.025C13.0917 2.025 14.1333 2.15417 15.15 2.4125C16.1667 2.67083 17.15 3.04167 18.1 3.525C18.25 3.60833 18.3375 3.70833 18.3625 3.825C18.3875 3.94167 18.375 4.05833 18.325 4.175C18.275 4.29167 18.1917 4.38333 18.075 4.45C17.9583 4.51667 17.8167 4.50833 17.65 4.425C16.7667 3.975 15.8542 3.62917 14.9125 3.3875C13.9708 3.14583 13.0083 3.025 12.025 3.025C11.0583 3.025 10.1083 3.1375 9.175 3.3625C8.24167 3.5875 7.35 3.94167 6.5 4.425ZM9.45 21.625C8.46667 20.5917 7.7125 19.5375 7.1875 18.4625C6.6625 17.3875 6.4 16.1167 6.4 14.65C6.4 13.1333 6.95 11.8542 8.05 10.8125C9.15 9.77083 10.475 9.25 12.025 9.25C13.575 9.25 14.9083 9.77083 16.025 10.8125C17.1417 11.8542 17.7 13.1333 17.7 14.65C17.7 14.8 17.6542 14.9208 17.5625 15.0125C17.4708 15.1042 17.35 15.15 17.2 15.15C17.0667 15.15 16.95 15.1042 16.85 15.0125C16.75 14.9208 16.7 14.8 16.7 14.65C16.7 13.4 16.2375 12.3542 15.3125 11.5125C14.3875 10.6708 13.2917 10.25 12.025 10.25C10.7583 10.25 9.67083 10.6708 8.7625 11.5125C7.85417 12.3542 7.4 13.4 7.4 14.65C7.4 16 7.63333 17.1458 8.1 18.0875C8.56667 19.0292 9.25 19.975 10.15 20.925C10.25 21.025 10.3 21.1417 10.3 21.275C10.3 21.4083 10.25 21.525 10.15 21.625C10.05 21.725 9.93333 21.775 9.8 21.775C9.66667 21.775 9.55 21.725 9.45 21.625ZM17 19.925C15.5167 19.925 14.2292 19.425 13.1375 18.425C12.0458 17.425 11.5 16.1667 11.5 14.65C11.5 14.5167 11.5458 14.4 11.6375 14.3C11.7292 14.2 11.85 14.15 12 14.15C12.15 14.15 12.2708 14.2 12.3625 14.3C12.4542 14.4 12.5 14.5167 12.5 14.65C12.5 15.9 12.95 16.925 13.85 17.725C14.75 18.525 15.8 18.925 17 18.925C17.1 18.925 17.2417 18.9167 17.425 18.9C17.6083 18.8833 17.8 18.8583 18 18.825C18.15 18.7917 18.2792 18.8125 18.3875 18.8875C18.4958 18.9625 18.5667 19.075 18.6 19.225C18.6333 19.3583 18.6083 19.475 18.525 19.575C18.4417 19.675 18.3333 19.7417 18.2 19.775C17.9 19.8583 17.6375 19.9042 17.4125 19.9125C17.1875 19.9208 17.05 19.925 17 19.925Z" fill="black"/>
  </svg>

  <svg id="barcode" viewBox="0 0 24 24" fill="none" xmlns="http://www.w3.org/2000/svg">
    <path d="M1.84622 18.6538V5.73083H3.69235V18.6538H1.84622ZM4.61542 18.6538V5.73083H6.46157V18.6538H4.61542ZM7.38465 18.6538V5.73083H8.30772V18.6538H7.38465ZM10.1538 18.6538V5.73083H12V18.6538H10.1538ZM12.9231 18.6538V5.73083H15.6923V18.6538H12.9231ZM16.6153 18.6538V5.73083H17.5384V18.6538H16.6153ZM19.3846 18.6538V5.73083H22.1538V18.6538H19.3846Z" fill="black"/>
  </svg>

  <svg id="qr-code" viewBox="0 0 24 24" fill="none" xmlns="http://www.w3.org/2000/svg">
    <path d="M13 21V19H15V21H13ZM11 19V14H13V19H11ZM19 16V12H21V16H19ZM17 12V10H19V12H17ZM5 14V12H7V14H5ZM3 12V10H5V12H3ZM12 5V3H14V5H12ZM4.5 7.5H7.5V4.5H4.5V7.5ZM3 9V3H9V9H3ZM4.5 19.5H7.5V16.5H4.5V19.5ZM3 21V15H9V21H3ZM16.5 7.5H19.5V4.5H16.5V7.5ZM15 9V3H21V9H15ZM17 21V18H15V16H19V19H21V21H17ZM13 14V12H17V14H13ZM9 14V12H7V10H13V12H11V14H9ZM10 9V5H12V7H14V9H10ZM5.25 6.75V5.25H6.75V6.75H5.25ZM5.25 18.75V17.25H6.75V18.75H5.25ZM17.25 6.75V5.25H18.75V6.75H17.25Z" fill="black"/>
  </svg>

  <svg id="expand-right" viewBox="0 0 24 24" fill="none" xmlns="http://www.w3.org/2000/svg">
    <path d="M11.5 16L11.5 8L7.5 12L11.5 16ZM21 19C21 19.55 20.8042 20.0208 20.4125 20.4125C20.0208 20.8042 19.55 21 19 21H5C4.45 21 3.97917 20.8042 3.5875 20.4125C3.19583 20.0208 3 19.55 3 19L3 5C3 4.45 3.19583 3.97917 3.5875 3.5875C3.97917 3.19583 4.45 3 5 3H19C19.55 3 20.0208 3.19583 20.4125 3.5875C20.8042 3.97917 21 4.45 21 5V19ZM16 19H19V5H16V19ZM14 19L14 5H5L5 19H14Z" fill="black"/>
  </svg>
</svg>
