<svg class="svg-sprite" viewBox="0 0 32 32" xmlns="http://www.w3.org/2000/svg"
     xmlns:xlink="http://www.w3.org/1999/xlink">
  <style>:root > svg {
    display: none
  }

  :root > svg:target {
    display: block
  }</style>

  <svg id="play" viewBox="0 0 11 14" fill="none" xmlns="http://www.w3.org/2000/svg">
    <path d="M0.500031 13.0961V0.9039L10.0769 7L0.500031 13.0961ZM2.00001 10.35L7.26923 7L2.00001 3.65V10.35Z" fill="black"/>
  </svg>

  <svg id="cancel-presentation" viewBox="0 0 24 24" fill="none" xmlns="http://www.w3.org/2000/svg">
    <path d="M9.4 15.6538L12 13.0538L14.6 15.6538L15.6538 14.6L13.0538 12L15.6538 9.4L14.6 8.34617L12 10.9462L9.4 8.34617L8.34617 9.4L10.9462 12L8.34617 14.6L9.4 15.6538ZM4.30772 19.5C3.80259 19.5 3.37502 19.325 3.02502 18.975C2.67502 18.625 2.50002 18.1974 2.50002 17.6923V6.30772C2.50002 5.80259 2.67502 5.37502 3.02502 5.02502C3.37502 4.67502 3.80259 4.50002 4.30772 4.50002H19.6923C20.1974 4.50002 20.625 4.67502 20.975 5.02502C21.325 5.37502 21.5 5.80259 21.5 6.30772V17.6923C21.5 18.1974 21.325 18.625 20.975 18.975C20.625 19.325 20.1974 19.5 19.6923 19.5H4.30772ZM4.30772 18H19.6923C19.7692 18 19.8397 17.9679 19.9038 17.9038C19.9679 17.8397 20 17.7692 20 17.6923V6.30772C20 6.23079 19.9679 6.16026 19.9038 6.09615C19.8397 6.03205 19.7692 6 19.6923 6H4.30772C4.23079 6 4.16026 6.03205 4.09615 6.09615C4.03205 6.16026 4 6.23079 4 6.30772V17.6923C4 17.7692 4.03205 17.8397 4.09615 17.9038C4.16026 17.9679 4.23079 18 4.30772 18Z" fill="black"/>
  </svg>

  <svg id="pause-presentation" viewBox="0 0 24 24" fill="none" xmlns="http://www.w3.org/2000/svg">
    <path d="M9.40387 15.75H10.9038V8.25002H9.40387V15.75ZM13.0961 15.75H14.5961V8.25002H13.0961V15.75ZM4.30772 19.5C3.80259 19.5 3.37502 19.325 3.02502 18.975C2.67502 18.625 2.50002 18.1974 2.50002 17.6923V6.30772C2.50002 5.80259 2.67502 5.37502 3.02502 5.02502C3.37502 4.67502 3.80259 4.50002 4.30772 4.50002H19.6923C20.1974 4.50002 20.625 4.67502 20.975 5.02502C21.325 5.37502 21.5 5.80259 21.5 6.30772V17.6923C21.5 18.1974 21.325 18.625 20.975 18.975C20.625 19.325 20.1974 19.5 19.6923 19.5H4.30772ZM4.30772 18H19.6923C19.7692 18 19.8397 17.9679 19.9038 17.9038C19.9679 17.8397 20 17.7692 20 17.6923V6.30772C20 6.23079 19.9679 6.16026 19.9038 6.09615C19.8397 6.03205 19.7692 6 19.6923 6H4.30772C4.23079 6 4.16026 6.03205 4.09615 6.09615C4.03205 6.16026 4 6.23079 4 6.30772V17.6923C4 17.7692 4.03205 17.8397 4.09615 17.9038C4.16026 17.9679 4.23079 18 4.30772 18Z" fill="black"/>
  </svg>

  <svg id="resume-presentation" viewBox="0 0 24 24" fill="none" xmlns="http://www.w3.org/2000/svg">
    <path d="M9.75002 16.0384L16.0384 12L9.75002 7.96157V16.0384ZM4.30772 19.5C3.80259 19.5 3.37502 19.325 3.02502 18.975C2.67502 18.625 2.50002 18.1974 2.50002 17.6923V6.30772C2.50002 5.80259 2.67502 5.37502 3.02502 5.02502C3.37502 4.67502 3.80259 4.50002 4.30772 4.50002H19.6923C20.1974 4.50002 20.625 4.67502 20.975 5.02502C21.325 5.37502 21.5 5.80259 21.5 6.30772V17.6923C21.5 18.1974 21.325 18.625 20.975 18.975C20.625 19.325 20.1974 19.5 19.6923 19.5H4.30772ZM4.30772 18H19.6923C19.7692 18 19.8397 17.9679 19.9038 17.9038C19.9679 17.8397 20 17.7692 20 17.6923V6.30772C20 6.23079 19.9679 6.16026 19.9038 6.09615C19.8397 6.03205 19.7692 6 19.6923 6H4.30772C4.23079 6 4.16026 6.03205 4.09615 6.09615C4.03205 6.16026 4 6.23079 4 6.30772V17.6923C4 17.7692 4.03205 17.8397 4.09615 17.9038C4.16026 17.9679 4.23079 18 4.30772 18Z" fill="black"/>
  </svg>

  <svg id="go-fullscreen" viewBox="0 0 24 24" fill="none" xmlns="http://www.w3.org/2000/svg">
    <path d="M5 19V14H6.49997V17.5H10V19H5ZM5 10V5H10V6.49998H6.49997V10H5ZM14 19V17.5H17.5V14H19V19H14ZM17.5 10V6.49998H14V5H19V10H17.5Z" fill="black"/>
  </svg>

  <svg id="exit-fullscreen" viewBox="0 0 24 24" fill="none" xmlns="http://www.w3.org/2000/svg">
    <path d="M8.50003 19V15.5H5V14H10V19H8.50003ZM14 19V14H19V15.5H15.5V19H14ZM5 10V8.50002H8.50003V5H10V10H5ZM14 10V5H15.5V8.50002H19V10H14Z" fill="black"/>
  </svg>

  <svg id="folder-open" viewBox="0 0 24 24" fill="none" xmlns="http://www.w3.org/2000/svg">
    <path d="M4 20C3.45 20 2.97917 19.8042 2.5875 19.4125C2.19583 19.0208 2 18.55 2 18V6C2 5.45 2.19583 4.97917 2.5875 4.5875C2.97917 4.19583 3.45 4 4 4H10L12 6H20C20.55 6 21.0208 6.19583 21.4125 6.5875C21.8042 6.97917 22 7.45 22 8H11.175L9.175 6H4V18L6.4 10H23.5L20.925 18.575C20.7917 19.0083 20.5458 19.3542 20.1875 19.6125C19.8292 19.8708 19.4333 20 19 20H4ZM6.1 18H19L20.8 12H7.9L6.1 18Z" fill="black"/>
  </svg>

  <svg id="add-link" viewBox="0 0 24 24" fill="none" xmlns="http://www.w3.org/2000/svg">
    <path d="M17 20V17H14V15H17V12H19V15H22V17H19V20H17ZM11 17H7C5.61667 17 4.4375 16.5125 3.4625 15.5375C2.4875 14.5625 2 13.3833 2 12C2 10.6167 2.4875 9.4375 3.4625 8.4625C4.4375 7.4875 5.61667 7 7 7H11V9H7C6.16667 9 5.45833 9.29167 4.875 9.875C4.29167 10.4583 4 11.1667 4 12C4 12.8333 4.29167 13.5417 4.875 14.125C5.45833 14.7083 6.16667 15 7 15H11V17ZM8 13V11H16V13H8ZM22 12H20C20 11.1667 19.7083 10.4583 19.125 9.875C18.5417 9.29167 17.8333 9 17 9H13V7H17C18.3833 7 19.5625 7.4875 20.5375 8.4625C21.5125 9.4375 22 10.6167 22 12Z" fill="black"/>
  </svg>

  <svg id="search" viewBox="0 0 24 24" fill="none" xmlns="http://www.w3.org/2000/svg">
    <path d="M19.6 21L13.3 14.7C12.8 15.1 12.225 15.4167 11.575 15.65C10.925 15.8833 10.2333 16 9.5 16C7.68333 16 6.14583 15.3708 4.8875 14.1125C3.62917 12.8542 3 11.3167 3 9.5C3 7.68333 3.62917 6.14583 4.8875 4.8875C6.14583 3.62917 7.68333 3 9.5 3C11.3167 3 12.8542 3.62917 14.1125 4.8875C15.3708 6.14583 16 7.68333 16 9.5C16 10.2333 15.8833 10.925 15.65 11.575C15.4167 12.225 15.1 12.8 14.7 13.3L21 19.6L19.6 21ZM9.5 14C10.75 14 11.8125 13.5625 12.6875 12.6875C13.5625 11.8125 14 10.75 14 9.5C14 8.25 13.5625 7.1875 12.6875 6.3125C11.8125 5.4375 10.75 5 9.5 5C8.25 5 7.1875 5.4375 6.3125 6.3125C5.4375 7.1875 5 8.25 5 9.5C5 10.75 5.4375 11.8125 6.3125 12.6875C7.1875 13.5625 8.25 14 9.5 14Z" fill="black"/>
  </svg>


</svg>
